<?xml version="1.0" encoding="utf-8" standalone="no"?>
<!DOCTYPE svg PUBLIC "-//W3C//DTD SVG 1.1//EN"
  "http://www.w3.org/Graphics/SVG/1.1/DTD/svg11.dtd">
<!-- Created with matplotlib (https://matplotlib.org/) -->
<svg height="504pt" version="1.1" viewBox="0 0 648 504" width="648pt" xmlns="http://www.w3.org/2000/svg" xmlns:xlink="http://www.w3.org/1999/xlink">
 <defs>
  <style type="text/css">
*{stroke-linecap:butt;stroke-linejoin:round;}
  </style>
 </defs>
 <g id="figure_1">
  <g id="patch_1">
   <path d="M 0 504 
L 648 504 
L 648 0 
L 0 0 
z
" style="fill:#f0f0f0;"/>
  </g>
  <g id="axes_1">
   <g id="patch_2">
    <path d="M 77.76 413.28 
L 609.12 413.28 
L 609.12 75.6 
L 77.76 75.6 
z
" style="fill:#f0f0f0;"/>
   </g>
   <g id="matplotlib.axis_1">
    <g id="xtick_1">
     <g id="line2d_1">
      <path clip-path="url(#p377c847e4f)" d="M 77.76 413.28 
L 77.76 75.6 
" style="fill:none;stroke:#b0b0b0;stroke-linecap:square;stroke-width:0.8;"/>
     </g>
     <g id="line2d_2">
      <defs>
       <path d="M 0 0 
L 0 3.5 
" id="md6194c3a33" style="stroke:#000000;stroke-width:0.8;"/>
      </defs>
      <g>
       <use style="stroke:#000000;stroke-width:0.8;" x="77.76" xlink:href="#md6194c3a33" y="413.28"/>
      </g>
     </g>
     <g id="text_1">
      <!-- 0 -->
      <defs>
       <path d="M 48.203125 52.59375 
L 48.203125 17.40625 
Q 48.203125 9.703125 42.953125 4.34375 
Q 37.703125 -1 29.890625 -1 
Q 22.09375 -1 16.9375 4.390625 
Q 11.796875 9.796875 11.796875 17.5 
L 11.796875 52.59375 
Q 11.796875 60.296875 16.9375 65.640625 
Q 22.09375 71 29.890625 71 
Q 37.703125 71 42.953125 65.640625 
Q 48.203125 60.296875 48.203125 52.59375 
z
M 39.90625 17.296875 
L 39.90625 52.5 
Q 39.90625 56.90625 37 60 
Q 34.09375 63.09375 29.90625 63.09375 
Q 25.796875 63.09375 22.890625 60 
Q 20 56.90625 20 52.5 
L 20 17.40625 
Q 20 13 22.890625 9.953125 
Q 25.796875 6.90625 30 6.90625 
Q 34.09375 6.90625 37 9.90625 
Q 39.90625 12.90625 39.90625 17.296875 
z
" id="DecimaMonoPro-48"/>
      </defs>
      <g style="fill:#303030;" transform="translate(73.56 430.093125)scale(0.14 -0.14)">
       <use xlink:href="#DecimaMonoPro-48"/>
      </g>
     </g>
    </g>
    <g id="xtick_2">
     <g id="line2d_3">
      <path clip-path="url(#p377c847e4f)" d="M 184.138378 413.28 
L 184.138378 75.6 
" style="fill:none;stroke:#b0b0b0;stroke-linecap:square;stroke-width:0.8;"/>
     </g>
     <g id="line2d_4">
      <g>
       <use style="stroke:#000000;stroke-width:0.8;" x="184.138378" xlink:href="#md6194c3a33" y="413.28"/>
      </g>
     </g>
     <g id="text_2">
      <!-- 200 -->
      <defs>
       <path d="M 11.703125 53 
Q 11.703125 59.703125 17.203125 65.34375 
Q 22.703125 71 30.59375 71 
Q 38.40625 71 43.796875 65.75 
Q 49.203125 60.5 49.203125 52.703125 
Q 49.203125 46.90625 46.09375 41.75 
Q 43 36.59375 38.59375 32.84375 
Q 34.203125 29.09375 29.796875 25.4375 
Q 25.40625 21.796875 22.296875 17.296875 
Q 19.203125 12.796875 19.203125 7.796875 
L 47.40625 7.796875 
Q 48.203125 7.796875 48.703125 7.296875 
Q 49.203125 6.796875 49.203125 6 
L 49.203125 1.796875 
Q 49.203125 1 48.703125 0.5 
Q 48.203125 0 47.40625 0 
L 12.59375 0 
Q 11.796875 0 11.296875 0.5 
Q 10.796875 1 10.796875 1.796875 
L 10.796875 7.296875 
Q 10.796875 13.90625 13.890625 19.453125 
Q 17 25 21.390625 28.890625 
Q 25.796875 32.796875 30.1875 36.390625 
Q 34.59375 40 37.6875 44.296875 
Q 40.796875 48.59375 40.796875 53.296875 
Q 40.796875 57.40625 37.75 60.25 
Q 34.703125 63.09375 30.5 63.09375 
Q 26.09375 63.09375 23.1875 59.6875 
Q 20.296875 56.296875 20.09375 53 
Q 19.90625 51 17.796875 51 
L 14 51 
Q 12.90625 51 12.296875 51.59375 
Q 11.703125 52.203125 11.703125 53 
z
" id="DecimaMonoPro-50"/>
      </defs>
      <g style="fill:#303030;" transform="translate(171.538378 430.093125)scale(0.14 -0.14)">
       <use xlink:href="#DecimaMonoPro-50"/>
       <use x="59.999985" xlink:href="#DecimaMonoPro-48"/>
       <use x="119.999969" xlink:href="#DecimaMonoPro-48"/>
      </g>
     </g>
    </g>
    <g id="xtick_3">
     <g id="line2d_5">
      <path clip-path="url(#p377c847e4f)" d="M 290.516757 413.28 
L 290.516757 75.6 
" style="fill:none;stroke:#b0b0b0;stroke-linecap:square;stroke-width:0.8;"/>
     </g>
     <g id="line2d_6">
      <g>
       <use style="stroke:#000000;stroke-width:0.8;" x="290.516757" xlink:href="#md6194c3a33" y="413.28"/>
      </g>
     </g>
     <g id="text_3">
      <!-- 400 -->
      <defs>
       <path d="M 40.09375 67.5 
L 19.5 22.90625 
L 35.796875 22.90625 
L 35.796875 38.90625 
Q 35.796875 39.703125 36.390625 40.296875 
Q 37 40.90625 38.09375 40.90625 
L 42.203125 40.90625 
Q 43 40.90625 43.59375 40.25 
Q 44.203125 39.59375 44.203125 38.90625 
L 44.203125 22.90625 
L 48 22.90625 
Q 48.796875 22.90625 49.390625 22.296875 
Q 50 21.703125 50 20.59375 
L 50 17.40625 
Q 50 16.296875 49.390625 15.6875 
Q 48.796875 15.09375 48 15.09375 
L 44.203125 15.09375 
L 44.203125 2 
Q 44.203125 1.203125 43.59375 0.59375 
Q 43 0 42.203125 0 
L 38.09375 0 
Q 37 0 36.390625 0.59375 
Q 35.796875 1.203125 35.796875 2 
L 35.796875 15.09375 
L 12.09375 15.09375 
Q 9.90625 15.09375 9.90625 17.40625 
L 9.90625 21.296875 
Q 9.90625 22.5 11 24.703125 
L 31.296875 68 
Q 32.296875 70 34 70 
L 38.796875 70 
Q 40.5 70 40.5 68.796875 
Q 40.5 68.5 40.09375 67.5 
z
" id="DecimaMonoPro-52"/>
      </defs>
      <g style="fill:#303030;" transform="translate(277.916757 430.093125)scale(0.14 -0.14)">
       <use xlink:href="#DecimaMonoPro-52"/>
       <use x="59.999985" xlink:href="#DecimaMonoPro-48"/>
       <use x="119.999969" xlink:href="#DecimaMonoPro-48"/>
      </g>
     </g>
    </g>
    <g id="xtick_4">
     <g id="line2d_7">
      <path clip-path="url(#p377c847e4f)" d="M 396.895135 413.28 
L 396.895135 75.6 
" style="fill:none;stroke:#b0b0b0;stroke-linecap:square;stroke-width:0.8;"/>
     </g>
     <g id="line2d_8">
      <g>
       <use style="stroke:#000000;stroke-width:0.8;" x="396.895135" xlink:href="#md6194c3a33" y="413.28"/>
      </g>
     </g>
     <g id="text_4">
      <!-- 600 -->
      <defs>
       <path d="M 11 60.203125 
Q 21.59375 71 29.5 71 
Q 37.40625 71 42.65625 65.953125 
Q 47.90625 60.90625 47.90625 54.40625 
Q 47.90625 53.59375 47.296875 53 
Q 46.703125 52.40625 45.59375 52.40625 
L 41.796875 52.40625 
Q 39.703125 52.40625 39.5 54.40625 
Q 39.296875 57.59375 36.640625 60.296875 
Q 34 63 29.5 63 
Q 25.203125 63 22.25 59.890625 
Q 19.296875 56.796875 19.296875 52.40625 
L 19.296875 42.796875 
Q 19.703125 43.296875 20.59375 44.046875 
Q 21.5 44.796875 24.546875 46 
Q 27.59375 47.203125 31 47.203125 
Q 38.40625 47.203125 43.703125 42 
Q 49 36.796875 49 28.90625 
L 49 17.5 
Q 49 9.796875 43.546875 4.390625 
Q 38.09375 -1 30 -1 
Q 21.90625 -1 16.453125 4.34375 
Q 11 9.703125 11 17.40625 
L 11 52.5 
Q 11 60.203125 21.59375 71 
z
M 30 39.296875 
Q 25.40625 39.296875 22.34375 36.390625 
Q 19.296875 33.5 19.296875 28.796875 
L 19.296875 17.296875 
Q 19.296875 12.90625 22.390625 9.90625 
Q 25.5 6.90625 30 6.90625 
Q 34.40625 6.90625 37.5 9.953125 
Q 40.59375 13 40.59375 17.40625 
L 40.59375 28.796875 
Q 40.59375 33.40625 37.546875 36.34375 
Q 34.5 39.296875 30 39.296875 
z
" id="DecimaMonoPro-54"/>
      </defs>
      <g style="fill:#303030;" transform="translate(384.295135 430.093125)scale(0.14 -0.14)">
       <use xlink:href="#DecimaMonoPro-54"/>
       <use x="59.999985" xlink:href="#DecimaMonoPro-48"/>
       <use x="119.999969" xlink:href="#DecimaMonoPro-48"/>
      </g>
     </g>
    </g>
    <g id="xtick_5">
     <g id="line2d_9">
      <path clip-path="url(#p377c847e4f)" d="M 503.273514 413.28 
L 503.273514 75.6 
" style="fill:none;stroke:#b0b0b0;stroke-linecap:square;stroke-width:0.8;"/>
     </g>
     <g id="line2d_10">
      <g>
       <use style="stroke:#000000;stroke-width:0.8;" x="503.273514" xlink:href="#md6194c3a33" y="413.28"/>
      </g>
     </g>
     <g id="text_5">
      <!-- 800 -->
      <defs>
       <path d="M 48.09375 53.5 
L 48.09375 49.796875 
Q 48.09375 41.5 41.796875 36.40625 
Q 49 30.796875 49 21.703125 
L 49 17.40625 
Q 49 9.703125 43.640625 4.34375 
Q 38.296875 -1 30.5 -1 
L 29.59375 -1 
Q 21.796875 -1 16.390625 4.390625 
Q 11 9.796875 11 17.5 
L 11 21.703125 
Q 11 30.703125 18.296875 36.40625 
Q 11.796875 41.296875 11.796875 49.90625 
L 11.796875 53.5 
Q 11.796875 60.796875 16.9375 65.890625 
Q 22.09375 71 29.5 71 
L 30.40625 71 
Q 37.796875 71 42.9375 65.890625 
Q 48.09375 60.796875 48.09375 53.5 
z
M 40.59375 17.296875 
L 40.59375 21.59375 
Q 40.59375 26 37.5 29.09375 
Q 34.40625 32.203125 30 32.203125 
Q 25.59375 32.203125 22.5 29.09375 
Q 19.40625 26 19.40625 21.59375 
L 19.40625 17.40625 
Q 19.40625 13 22.546875 9.953125 
Q 25.703125 6.90625 30.203125 6.90625 
Q 34.5 6.90625 37.546875 9.90625 
Q 40.59375 12.90625 40.59375 17.296875 
z
M 39.703125 49.703125 
L 39.703125 53.09375 
Q 39.703125 57.296875 36.84375 60.1875 
Q 34 63.09375 29.796875 63.09375 
Q 25.796875 63.09375 23 60.1875 
Q 20.203125 57.296875 20.203125 53.09375 
L 20.203125 49.796875 
Q 20.203125 45.90625 22.84375 43 
Q 25.5 40.09375 29.59375 40.09375 
L 30.5 40.09375 
Q 34.296875 40.09375 37 42.84375 
Q 39.703125 45.59375 39.703125 49.703125 
z
" id="DecimaMonoPro-56"/>
      </defs>
      <g style="fill:#303030;" transform="translate(490.673514 430.093125)scale(0.14 -0.14)">
       <use xlink:href="#DecimaMonoPro-56"/>
       <use x="59.999985" xlink:href="#DecimaMonoPro-48"/>
       <use x="119.999969" xlink:href="#DecimaMonoPro-48"/>
      </g>
     </g>
    </g>
    <g id="text_6">
     <!-- x -->
     <defs>
      <path d="M 3.59375 50.40625 
L 13.09375 50.40625 
L 22.90625 34.40625 
L 32.703125 50.40625 
L 42.203125 50.40625 
L 27.59375 26.59375 
L 44 0 
L 34.5 0 
L 22.90625 18.90625 
L 11.296875 0 
L 1.796875 0 
L 18.203125 26.59375 
z
" id="Apercu-120"/>
     </defs>
     <g style="opacity:0.75;" transform="translate(340.234219 446.524687)scale(0.14 -0.14)">
      <use xlink:href="#Apercu-120"/>
     </g>
    </g>
   </g>
   <g id="matplotlib.axis_2">
    <g id="ytick_1">
     <g id="line2d_11">
      <path clip-path="url(#p377c847e4f)" d="M 77.76 397.930909 
L 609.12 397.930909 
" style="fill:none;stroke:#b0b0b0;stroke-linecap:square;stroke-width:0.8;"/>
     </g>
     <g id="line2d_12">
      <defs>
       <path d="M 0 0 
L -3.5 0 
" id="mbe85d3e284" style="stroke:#000000;stroke-width:0.8;"/>
      </defs>
      <g>
       <use style="stroke:#000000;stroke-width:0.8;" x="77.76" xlink:href="#mbe85d3e284" y="397.930909"/>
      </g>
     </g>
     <g id="text_7">
      <!-- 0 -->
      <g style="fill:#303030;" transform="translate(62.36 402.837472)scale(0.14 -0.14)">
       <use xlink:href="#DecimaMonoPro-48"/>
      </g>
     </g>
    </g>
    <g id="ytick_2">
     <g id="line2d_13">
      <path clip-path="url(#p377c847e4f)" d="M 77.76 334.307734 
L 609.12 334.307734 
" style="fill:none;stroke:#b0b0b0;stroke-linecap:square;stroke-width:0.8;"/>
     </g>
     <g id="line2d_14">
      <g>
       <use style="stroke:#000000;stroke-width:0.8;" x="77.76" xlink:href="#mbe85d3e284" y="334.307734"/>
      </g>
     </g>
     <g id="text_8">
      <!-- 200 -->
      <g style="fill:#303030;" transform="translate(45.56 339.214297)scale(0.14 -0.14)">
       <use xlink:href="#DecimaMonoPro-50"/>
       <use x="59.999985" xlink:href="#DecimaMonoPro-48"/>
       <use x="119.999969" xlink:href="#DecimaMonoPro-48"/>
      </g>
     </g>
    </g>
    <g id="ytick_3">
     <g id="line2d_15">
      <path clip-path="url(#p377c847e4f)" d="M 77.76 270.68456 
L 609.12 270.68456 
" style="fill:none;stroke:#b0b0b0;stroke-linecap:square;stroke-width:0.8;"/>
     </g>
     <g id="line2d_16">
      <g>
       <use style="stroke:#000000;stroke-width:0.8;" x="77.76" xlink:href="#mbe85d3e284" y="270.68456"/>
      </g>
     </g>
     <g id="text_9">
      <!-- 400 -->
      <g style="fill:#303030;" transform="translate(45.56 275.591122)scale(0.14 -0.14)">
       <use xlink:href="#DecimaMonoPro-52"/>
       <use x="59.999985" xlink:href="#DecimaMonoPro-48"/>
       <use x="119.999969" xlink:href="#DecimaMonoPro-48"/>
      </g>
     </g>
    </g>
    <g id="ytick_4">
     <g id="line2d_17">
      <path clip-path="url(#p377c847e4f)" d="M 77.76 207.061385 
L 609.12 207.061385 
" style="fill:none;stroke:#b0b0b0;stroke-linecap:square;stroke-width:0.8;"/>
     </g>
     <g id="line2d_18">
      <g>
       <use style="stroke:#000000;stroke-width:0.8;" x="77.76" xlink:href="#mbe85d3e284" y="207.061385"/>
      </g>
     </g>
     <g id="text_10">
      <!-- 600 -->
      <g style="fill:#303030;" transform="translate(45.56 211.967947)scale(0.14 -0.14)">
       <use xlink:href="#DecimaMonoPro-54"/>
       <use x="59.999985" xlink:href="#DecimaMonoPro-48"/>
       <use x="119.999969" xlink:href="#DecimaMonoPro-48"/>
      </g>
     </g>
    </g>
    <g id="ytick_5">
     <g id="line2d_19">
      <path clip-path="url(#p377c847e4f)" d="M 77.76 143.43821 
L 609.12 143.43821 
" style="fill:none;stroke:#b0b0b0;stroke-linecap:square;stroke-width:0.8;"/>
     </g>
     <g id="line2d_20">
      <g>
       <use style="stroke:#000000;stroke-width:0.8;" x="77.76" xlink:href="#mbe85d3e284" y="143.43821"/>
      </g>
     </g>
     <g id="text_11">
      <!-- 800 -->
      <g style="fill:#303030;" transform="translate(45.56 148.344773)scale(0.14 -0.14)">
       <use xlink:href="#DecimaMonoPro-56"/>
       <use x="59.999985" xlink:href="#DecimaMonoPro-48"/>
       <use x="119.999969" xlink:href="#DecimaMonoPro-48"/>
      </g>
     </g>
    </g>
    <g id="ytick_6">
     <g id="line2d_21">
      <path clip-path="url(#p377c847e4f)" d="M 77.76 79.815035 
L 609.12 79.815035 
" style="fill:none;stroke:#b0b0b0;stroke-linecap:square;stroke-width:0.8;"/>
     </g>
     <g id="line2d_22">
      <g>
       <use style="stroke:#000000;stroke-width:0.8;" x="77.76" xlink:href="#mbe85d3e284" y="79.815035"/>
      </g>
     </g>
     <g id="text_12">
      <!-- 1000 -->
      <defs>
       <path d="M 13.90625 68.203125 
L 25.203125 70 
L 32.296875 70 
Q 33 70 33.546875 69.5 
Q 34.09375 69 34.09375 68.203125 
L 34.09375 7.703125 
L 47.296875 7.703125 
Q 48 7.703125 48.546875 7.140625 
Q 49.09375 6.59375 49.09375 5.90625 
L 49.09375 1.796875 
Q 49.09375 1 48.546875 0.5 
Q 48 0 47.296875 0 
L 12.59375 0 
Q 11.796875 0 11.296875 0.5 
Q 10.796875 1 10.796875 1.796875 
L 10.796875 5.90625 
Q 10.796875 6.59375 11.296875 7.140625 
Q 11.796875 7.703125 12.59375 7.703125 
L 25.703125 7.703125 
L 25.703125 62.09375 
L 14.703125 60.40625 
L 14.40625 60.40625 
Q 14 60.296875 13.5 60.296875 
Q 12.09375 60.296875 12.09375 62.09375 
L 12.09375 66.296875 
Q 12.09375 67.796875 13.90625 68.203125 
z
" id="DecimaMonoPro-49"/>
      </defs>
      <g style="fill:#303030;" transform="translate(37.16 84.721598)scale(0.14 -0.14)">
       <use xlink:href="#DecimaMonoPro-49"/>
       <use x="59.999985" xlink:href="#DecimaMonoPro-48"/>
       <use x="119.999969" xlink:href="#DecimaMonoPro-48"/>
       <use x="179.999954" xlink:href="#DecimaMonoPro-48"/>
      </g>
     </g>
    </g>
    <g id="text_13">
     <!-- y -->
     <defs>
      <path d="M 36 50.40625 
L 44.796875 50.40625 
L 19.796875 -20.40625 
L 11.203125 -20.40625 
L 19.203125 2.09375 
L 1.5 50.40625 
L 10.703125 50.40625 
L 23.5 14 
z
" id="Apercu-121"/>
     </defs>
     <g style="opacity:0.75;" transform="translate(30.303125 247.66)rotate(-90)scale(0.14 -0.14)">
      <use xlink:href="#Apercu-121"/>
     </g>
    </g>
   </g>
   <g id="line2d_23">
    <path clip-path="url(#p377c847e4f)" d="M 77.76 270.68456 
L 79.887568 246.189637 
L 80.419459 241.736015 
L 81.483243 231.556307 
L 82.015135 227.420801 
L 83.610811 221.058483 
L 84.674595 218.513556 
L 86.27027 215.650513 
L 87.334054 214.37805 
L 87.865946 214.059934 
L 88.92973 214.059934 
L 89.461622 213.741818 
L 91.589189 213.741818 
L 92.121081 214.059934 
L 93.184865 215.332398 
L 93.716757 217.877325 
L 94.248649 222.012831 
L 95.312432 246.189637 
L 96.908108 278.001225 
L 98.503784 289.13528 
L 99.567568 292.316439 
L 100.099459 292.634555 
L 101.695135 292.634555 
L 102.227027 291.680207 
L 103.290811 286.272237 
L 103.822703 282.136731 
L 104.886486 266.549053 
L 105.418378 261.777315 
L 105.95027 252.233839 
L 106.482162 236.646161 
L 107.014054 226.148337 
L 108.077838 196.881677 
L 108.60973 191.155591 
L 109.141622 176.204145 
L 109.673514 169.841828 
L 110.205405 165.388205 
L 111.269189 159.980236 
L 112.332973 155.844729 
L 112.864865 154.25415 
L 113.396757 153.299802 
L 113.928649 152.66357 
L 114.460541 152.345455 
L 114.992432 151.709223 
L 115.524324 151.391107 
L 117.651892 148.84618 
L 118.183784 148.528064 
L 118.715676 147.891832 
L 120.311351 147.891832 
L 120.843243 148.209948 
L 121.375135 149.164296 
L 121.907027 149.482412 
L 122.970811 150.754875 
L 123.502703 152.66357 
L 124.034595 153.299802 
L 124.566486 154.890382 
L 125.098378 155.844729 
L 126.162162 159.344004 
L 126.694054 160.616467 
L 127.225946 162.525163 
L 127.757838 163.161394 
L 128.28973 164.433858 
L 128.821622 165.070089 
L 129.353514 165.388205 
L 129.885405 165.388205 
L 130.417297 166.024437 
L 131.481081 166.660669 
L 132.012973 167.296901 
L 133.608649 168.251248 
L 134.672432 171.432407 
L 135.736216 176.522261 
L 136.268108 178.11284 
L 136.8 178.749072 
L 137.331892 178.749072 
L 137.863784 177.794724 
L 138.395676 176.522261 
L 139.459459 173.659218 
L 139.991351 172.70487 
L 140.523243 172.068639 
L 141.055135 171.114291 
L 141.587027 170.478059 
L 142.118919 170.159943 
L 143.182703 168.88748 
L 144.246486 166.978785 
L 144.778378 164.751974 
L 145.842162 158.707772 
L 146.374054 155.526613 
L 146.905946 151.391107 
L 150.097297 136.439661 
L 150.629189 135.485313 
L 151.161081 134.849081 
L 151.692973 134.849081 
L 152.224865 134.530966 
L 154.352432 134.530966 
L 155.416216 135.167197 
L 156.48 135.167197 
L 157.011892 136.121545 
L 157.543784 136.121545 
L 161.798919 138.666472 
L 162.330811 139.62082 
L 162.862703 140.257051 
L 163.394595 141.211399 
L 163.926486 141.847631 
L 165.522162 142.801978 
L 167.64973 142.801978 
L 169.245405 143.756326 
L 169.777297 145.346905 
L 170.309189 146.301253 
L 170.841081 147.891832 
L 171.904865 149.800528 
L 172.436757 150.436759 
L 174.564324 150.436759 
L 175.096216 150.754875 
L 179.883243 150.754875 
L 180.947027 150.118643 
L 181.478919 150.118643 
L 182.010811 149.800528 
L 182.542703 149.800528 
L 184.67027 148.528064 
L 185.202162 148.528064 
L 186.797838 146.619369 
L 187.32973 146.619369 
L 189.457297 144.074442 
L 189.989189 143.120094 
L 191.052973 141.847631 
L 192.116757 139.938935 
L 192.648649 138.666472 
L 193.180541 137.712124 
L 194.244324 135.167197 
L 195.308108 133.258502 
L 195.84 131.667923 
L 196.903784 129.759228 
L 197.967568 128.486764 
L 198.499459 127.214301 
L 199.563243 125.941837 
L 200.095135 125.623721 
L 202.222703 123.078794 
L 202.754595 122.124447 
L 203.286486 120.851983 
L 204.35027 118.943288 
L 204.882162 118.307056 
L 205.414054 117.034593 
L 205.945946 116.080245 
L 206.477838 115.444013 
L 207.00973 114.489666 
L 208.073514 113.217202 
L 208.605405 112.899086 
L 210.732973 110.354159 
L 211.264865 109.399812 
L 211.796757 108.76358 
L 213.924324 107.491116 
L 214.456216 107.491116 
L 214.988108 109.399812 
L 216.051892 116.716477 
L 216.583784 122.124447 
L 218.179459 132.940386 
L 218.711351 137.394008 
L 219.775135 143.756326 
L 220.307027 145.983137 
L 221.370811 148.84618 
L 221.902703 149.800528 
L 223.498378 151.709223 
L 224.03027 152.027339 
L 224.562162 152.66357 
L 225.094054 152.66357 
L 226.157838 153.299802 
L 226.68973 153.299802 
L 228.285405 152.345455 
L 228.817297 151.072991 
L 229.881081 145.346905 
L 230.944865 138.348356 
L 233.072432 131.667923 
L 234.136216 130.395459 
L 234.668108 129.441112 
L 235.731892 128.168648 
L 236.263784 127.214301 
L 237.327568 125.941837 
L 238.923243 124.987489 
L 239.455135 124.987489 
L 241.050811 124.033142 
L 241.582703 124.033142 
L 242.114595 124.351258 
L 242.646486 124.987489 
L 243.178378 125.941837 
L 243.71027 127.532416 
L 245.305946 136.121545 
L 245.837838 140.257051 
L 246.901622 146.301253 
L 247.433514 147.891832 
L 247.965405 148.84618 
L 248.497297 150.118643 
L 249.029189 150.754875 
L 249.561081 151.072991 
L 250.624865 151.072991 
L 252.752432 152.345455 
L 253.284324 152.345455 
L 253.816216 152.027339 
L 254.348108 151.391107 
L 254.88 150.436759 
L 255.411892 148.528064 
L 257.539459 137.394008 
L 258.071351 135.803429 
L 258.603243 132.940386 
L 259.667027 125.305605 
L 260.730811 114.489666 
L 261.262703 111.626623 
L 262.326486 107.173 
L 263.39027 103.991842 
L 264.985946 102.083146 
L 265.517838 102.083146 
L 266.581622 101.446915 
L 267.113514 101.446915 
L 267.645405 100.810683 
L 268.709189 100.810683 
L 269.241081 100.492567 
L 271.900541 100.492567 
L 272.432432 101.128799 
L 272.964324 102.083146 
L 273.496216 102.719378 
L 274.028108 103.037494 
L 274.56 103.037494 
L 275.091892 103.673726 
L 275.623784 103.991842 
L 278.815135 103.991842 
L 279.347027 103.673726 
L 283.07027 103.673726 
L 284.134054 103.037494 
L 285.197838 103.037494 
L 285.72973 105.900537 
L 286.793514 114.489666 
L 287.857297 118.625172 
L 288.389189 120.851983 
L 288.921081 121.806331 
L 289.452973 123.715026 
L 289.984865 124.351258 
L 290.516757 125.623721 
L 291.580541 126.259953 
L 292.112432 124.987489 
L 292.644324 123.39691 
L 293.176216 122.442562 
L 293.708108 121.806331 
L 294.24 121.488215 
L 294.771892 120.533867 
L 295.835676 120.533867 
L 296.367568 120.215751 
L 296.899459 120.215751 
L 297.963243 119.57952 
L 298.495135 121.170099 
L 299.027027 123.39691 
L 299.558919 124.987489 
L 300.090811 125.623721 
L 300.622703 126.578069 
L 302.218378 127.532416 
L 302.75027 127.532416 
L 304.345946 117.670824 
L 304.877838 114.807781 
L 306.473514 104.309958 
L 307.537297 100.810683 
L 308.069189 99.53822 
L 308.601081 98.583872 
L 309.132973 97.94764 
L 309.664865 97.629524 
L 310.196757 96.993293 
L 311.260541 96.357061 
L 311.792432 96.357061 
L 312.324324 96.038945 
L 312.856216 96.038945 
L 314.983784 97.311408 
L 315.515676 97.311408 
L 316.047568 97.94764 
L 316.579459 97.94764 
L 317.111351 98.265756 
L 317.643243 98.265756 
L 318.175135 97.629524 
L 318.707027 97.629524 
L 320.302703 94.766481 
L 320.834595 93.175902 
L 321.366486 92.221554 
L 321.898378 91.585323 
L 322.962162 90.949091 
L 325.08973 90.949091 
L 325.621622 91.267207 
L 326.153514 91.267207 
L 326.685405 91.585323 
L 333.068108 91.585323 
L 333.6 270.68456 
L 335.727568 246.189637 
L 336.259459 241.736015 
L 337.323243 231.556307 
L 337.855135 227.420801 
L 339.450811 221.058483 
L 340.514595 218.513556 
L 342.11027 215.650513 
L 343.174054 214.37805 
L 343.705946 214.059934 
L 344.76973 214.059934 
L 345.301622 213.741818 
L 347.429189 213.741818 
L 347.961081 214.059934 
L 349.024865 215.332398 
L 349.556757 217.877325 
L 350.088649 222.012831 
L 351.152432 246.189637 
L 352.748108 278.001225 
L 354.343784 289.13528 
L 355.407568 292.316439 
L 355.939459 292.634555 
L 357.535135 292.634555 
L 358.067027 291.680207 
L 359.130811 286.272237 
L 359.662703 282.136731 
L 360.726486 266.549053 
L 361.258378 261.777315 
L 361.79027 252.233839 
L 362.322162 236.646161 
L 362.854054 226.148337 
L 363.917838 196.881677 
L 364.44973 191.155591 
L 364.981622 176.204145 
L 365.513514 169.841828 
L 366.045405 165.388205 
L 367.109189 159.980236 
L 368.172973 155.844729 
L 368.704865 154.25415 
L 369.236757 153.299802 
L 369.768649 152.66357 
L 370.300541 152.345455 
L 370.832432 151.709223 
L 371.364324 151.391107 
L 373.491892 148.84618 
L 374.023784 148.528064 
L 374.555676 147.891832 
L 376.151351 147.891832 
L 376.683243 148.209948 
L 377.215135 149.164296 
L 377.747027 149.482412 
L 378.810811 150.754875 
L 379.342703 152.66357 
L 379.874595 153.299802 
L 380.406486 154.890382 
L 380.938378 155.844729 
L 382.002162 159.344004 
L 382.534054 160.616467 
L 383.065946 162.525163 
L 383.597838 163.161394 
L 384.12973 164.433858 
L 384.661622 165.070089 
L 385.193514 165.388205 
L 385.725405 165.388205 
L 386.257297 166.024437 
L 387.321081 166.660669 
L 387.852973 167.296901 
L 389.448649 168.251248 
L 390.512432 171.432407 
L 391.576216 176.522261 
L 392.108108 178.11284 
L 392.64 178.749072 
L 393.171892 178.749072 
L 393.703784 177.794724 
L 394.235676 176.522261 
L 395.299459 173.659218 
L 395.831351 172.70487 
L 396.363243 172.068639 
L 396.895135 171.114291 
L 397.427027 170.478059 
L 397.958919 170.159943 
L 399.022703 168.88748 
L 400.086486 166.978785 
L 400.618378 164.751974 
L 401.682162 158.707772 
L 402.214054 155.526613 
L 402.745946 151.391107 
L 405.937297 136.439661 
L 406.469189 135.485313 
L 407.001081 134.849081 
L 407.532973 134.849081 
L 408.064865 134.530966 
L 410.192432 134.530966 
L 411.256216 135.167197 
L 412.32 135.167197 
L 412.851892 136.121545 
L 413.383784 136.121545 
L 417.638919 138.666472 
L 418.170811 139.62082 
L 418.702703 140.257051 
L 419.234595 141.211399 
L 419.766486 141.847631 
L 421.362162 142.801978 
L 423.48973 142.801978 
L 425.085405 143.756326 
L 425.617297 145.346905 
L 426.149189 146.301253 
L 426.681081 147.891832 
L 427.744865 149.800528 
L 428.276757 150.436759 
L 430.404324 150.436759 
L 430.936216 150.754875 
L 435.723243 150.754875 
L 436.787027 150.118643 
L 437.318919 150.118643 
L 437.850811 149.800528 
L 438.382703 149.800528 
L 440.51027 148.528064 
L 441.042162 148.528064 
L 442.637838 146.619369 
L 443.16973 146.619369 
L 445.297297 144.074442 
L 445.829189 143.120094 
L 446.892973 141.847631 
L 447.956757 139.938935 
L 448.488649 138.666472 
L 449.020541 137.712124 
L 450.084324 135.167197 
L 451.148108 133.258502 
L 451.68 131.667923 
L 452.743784 129.759228 
L 453.807568 128.486764 
L 454.339459 127.214301 
L 455.403243 125.941837 
L 455.935135 125.623721 
L 458.062703 123.078794 
L 458.594595 122.124447 
L 459.126486 120.851983 
L 460.19027 118.943288 
L 460.722162 118.307056 
L 461.254054 117.034593 
L 461.785946 116.080245 
L 462.317838 115.444013 
L 462.84973 114.489666 
L 463.913514 113.217202 
L 464.445405 112.899086 
L 466.572973 110.354159 
L 467.104865 109.399812 
L 467.636757 108.76358 
L 469.764324 107.491116 
L 470.296216 107.491116 
L 470.828108 109.399812 
L 471.891892 116.716477 
L 472.423784 122.124447 
L 474.019459 132.940386 
L 474.551351 137.394008 
L 475.615135 143.756326 
L 476.147027 145.983137 
L 477.210811 148.84618 
L 477.742703 149.800528 
L 479.338378 151.709223 
L 479.87027 152.027339 
L 480.402162 152.66357 
L 480.934054 152.66357 
L 481.997838 153.299802 
L 482.52973 153.299802 
L 484.125405 152.345455 
L 484.657297 151.072991 
L 485.721081 145.346905 
L 486.784865 138.348356 
L 488.912432 131.667923 
L 489.976216 130.395459 
L 490.508108 129.441112 
L 491.571892 128.168648 
L 492.103784 127.214301 
L 493.167568 125.941837 
L 494.763243 124.987489 
L 495.295135 124.987489 
L 496.890811 124.033142 
L 497.422703 124.033142 
L 497.954595 124.351258 
L 498.486486 124.987489 
L 499.018378 125.941837 
L 499.55027 127.532416 
L 501.145946 136.121545 
L 501.677838 140.257051 
L 502.741622 146.301253 
L 503.273514 147.891832 
L 503.805405 148.84618 
L 504.337297 150.118643 
L 504.869189 150.754875 
L 505.401081 151.072991 
L 506.464865 151.072991 
L 508.592432 152.345455 
L 509.124324 152.345455 
L 509.656216 152.027339 
L 510.188108 151.391107 
L 510.72 150.436759 
L 511.251892 148.528064 
L 513.379459 137.394008 
L 513.911351 135.803429 
L 514.443243 132.940386 
L 515.507027 125.305605 
L 516.570811 114.489666 
L 517.102703 111.626623 
L 518.166486 107.173 
L 519.23027 103.991842 
L 520.825946 102.083146 
L 521.357838 102.083146 
L 522.421622 101.446915 
L 522.953514 101.446915 
L 523.485405 100.810683 
L 524.549189 100.810683 
L 525.081081 100.492567 
L 527.740541 100.492567 
L 528.272432 101.128799 
L 528.804324 102.083146 
L 529.336216 102.719378 
L 529.868108 103.037494 
L 530.4 103.037494 
L 530.931892 103.673726 
L 531.463784 103.991842 
L 534.655135 103.991842 
L 535.187027 103.673726 
L 538.91027 103.673726 
L 539.974054 103.037494 
L 541.037838 103.037494 
L 541.56973 105.900537 
L 542.633514 114.489666 
L 543.697297 118.625172 
L 544.229189 120.851983 
L 544.761081 121.806331 
L 545.292973 123.715026 
L 545.824865 124.351258 
L 546.356757 125.623721 
L 547.420541 126.259953 
L 547.952432 124.987489 
L 548.484324 123.39691 
L 549.016216 122.442562 
L 549.548108 121.806331 
L 550.08 121.488215 
L 550.611892 120.533867 
L 551.675676 120.533867 
L 552.207568 120.215751 
L 552.739459 120.215751 
L 553.803243 119.57952 
L 554.335135 121.170099 
L 554.867027 123.39691 
L 555.398919 124.987489 
L 555.930811 125.623721 
L 556.462703 126.578069 
L 558.058378 127.532416 
L 558.59027 127.532416 
L 560.185946 117.670824 
L 560.717838 114.807781 
L 562.313514 104.309958 
L 563.377297 100.810683 
L 563.909189 99.53822 
L 564.441081 98.583872 
L 564.972973 97.94764 
L 565.504865 97.629524 
L 566.036757 96.993293 
L 567.100541 96.357061 
L 567.632432 96.357061 
L 568.164324 96.038945 
L 568.696216 96.038945 
L 570.823784 97.311408 
L 571.355676 97.311408 
L 571.887568 97.94764 
L 572.419459 97.94764 
L 572.951351 98.265756 
L 573.483243 98.265756 
L 574.015135 97.629524 
L 574.547027 97.629524 
L 576.142703 94.766481 
L 576.674595 93.175902 
L 577.206486 92.221554 
L 577.738378 91.585323 
L 578.802162 90.949091 
L 580.92973 90.949091 
L 581.461622 91.267207 
L 581.993514 91.267207 
L 582.525405 91.585323 
L 588.908108 91.585323 
L 589.44 270.68456 
L 591.567568 246.189637 
L 592.099459 241.736015 
L 593.163243 231.556307 
L 593.695135 227.420801 
L 595.290811 221.058483 
L 596.354595 218.513556 
L 597.95027 215.650513 
L 599.014054 214.37805 
L 599.545946 214.059934 
L 600.60973 214.059934 
L 601.141622 213.741818 
L 603.269189 213.741818 
L 603.801081 214.059934 
L 604.864865 215.332398 
L 605.396757 217.877325 
L 605.928649 222.012831 
L 606.992432 246.189637 
L 608.588108 278.001225 
L 609.12 281.500499 
L 609.12 281.500499 
" style="fill:none;stroke:#000004;stroke-width:3;"/>
   </g>
   <g id="line2d_24">
    <path clip-path="url(#p377c847e4f)" d="M 77.76 397.930909 
L 609.12 397.930909 
" style="fill:none;stroke:#000000;stroke-opacity:0.7;stroke-width:1.3;"/>
   </g>
   <g id="patch_3">
    <path d="M 77.76 413.28 
L 77.76 75.6 
" style="fill:none;stroke:#000000;stroke-linecap:square;stroke-linejoin:miter;stroke-width:0.8;"/>
   </g>
   <g id="patch_4">
    <path d="M 609.12 413.28 
L 609.12 75.6 
" style="fill:none;stroke:#000000;stroke-linecap:square;stroke-linejoin:miter;stroke-width:0.8;"/>
   </g>
   <g id="patch_5">
    <path d="M 77.76 413.28 
L 609.12 413.28 
" style="fill:none;stroke:#000000;stroke-linecap:square;stroke-linejoin:miter;stroke-width:0.8;"/>
   </g>
   <g id="patch_6">
    <path d="M 77.76 75.6 
L 609.12 75.6 
" style="fill:none;stroke:#000000;stroke-linecap:square;stroke-linejoin:miter;stroke-width:0.8;"/>
   </g>
   <g id="patch_7">
    <path d="M 0 504 
L 648 504 
L 648 480.923077 
L 0 480.923077 
z
" style="fill:#808080;"/>
   </g>
   <g id="text_14">
    <!-- ©spred -->
    <defs>
     <path d="M 50.90625 25.90625 
L 50.90625 44 
Q 50.90625 52.40625 44.75 58.40625 
Q 38.59375 64.40625 30 64.40625 
Q 21.296875 64.40625 15.09375 58.40625 
Q 8.90625 52.40625 8.90625 44 
L 8.90625 25.90625 
Q 8.90625 17.5 15.09375 11.453125 
Q 21.296875 5.40625 30 5.40625 
Q 38.59375 5.40625 44.75 11.453125 
Q 50.90625 17.5 50.90625 25.90625 
z
M 57.703125 43.203125 
L 57.703125 26.59375 
Q 57.703125 15.203125 49.59375 7.09375 
Q 41.5 -1 30 -1 
Q 18.40625 -1 10.296875 7.09375 
Q 2.203125 15.203125 2.203125 26.59375 
L 2.203125 43.203125 
Q 2.203125 54.59375 10.296875 62.6875 
Q 18.40625 70.796875 30 70.796875 
Q 41.5 70.796875 49.59375 62.6875 
Q 57.703125 54.59375 57.703125 43.203125 
z
M 38.59375 29.40625 
L 41.40625 29.40625 
Q 42.40625 29.40625 42.90625 28.84375 
Q 43.40625 28.296875 43.40625 27.59375 
Q 43.40625 21.59375 39.796875 17.9375 
Q 36.203125 14.296875 30.40625 14.296875 
Q 24.40625 14.296875 20.75 17.9375 
Q 17.09375 21.59375 17.09375 27.09375 
L 17.09375 43.40625 
Q 17.09375 48.703125 20.75 52.390625 
Q 24.40625 56.09375 30.40625 56.09375 
Q 35.90625 56.09375 39.40625 52.25 
Q 42.90625 48.40625 42.90625 42.296875 
Q 42.90625 41.59375 42.40625 41.046875 
Q 41.90625 40.5 40.90625 40.5 
L 38.09375 40.5 
Q 37.09375 40.5 36.546875 41.046875 
Q 36 41.59375 36 42.296875 
Q 36 45.203125 34.390625 47.046875 
Q 32.796875 48.90625 30.40625 48.90625 
Q 27.703125 48.90625 25.796875 46.90625 
Q 23.90625 44.90625 23.90625 42.203125 
L 23.90625 28.203125 
Q 23.90625 25.59375 25.796875 23.59375 
Q 27.703125 21.59375 30.40625 21.59375 
Q 32.90625 21.59375 34.703125 23.1875 
Q 36.5 24.796875 36.5 27.59375 
Q 36.5 28.296875 37.046875 28.84375 
Q 37.59375 29.40625 38.59375 29.40625 
z
" id="DecimaMonoPro-169"/>
     <path d="M 30.09375 -1 
Q 25.296875 -1 21.546875 0.59375 
Q 17.796875 2.203125 15.84375 4.59375 
Q 13.90625 7 12.953125 9.390625 
Q 12 11.796875 12 14 
Q 12 14.796875 12.5 15.296875 
Q 13 15.796875 13.796875 15.796875 
L 18.296875 15.796875 
Q 19.90625 15.796875 20.09375 14.09375 
Q 20.40625 11.203125 22.796875 8.703125 
Q 25.203125 6.203125 30.09375 6.203125 
Q 34.296875 6.203125 36.890625 8.296875 
Q 39.5 10.40625 39.5 13.59375 
Q 39.5 16.5 36.84375 18.5 
Q 34.203125 20.5 30.390625 21.84375 
Q 26.59375 23.203125 22.84375 24.796875 
Q 19.09375 26.40625 16.4375 29.5 
Q 13.796875 32.59375 13.796875 37.09375 
Q 13.796875 43.296875 18.4375 47.140625 
Q 23.09375 51 30.703125 51 
Q 38.90625 51 43.25 46.5 
Q 47.59375 42 47.59375 37.5 
Q 47.59375 36.796875 47.09375 36.25 
Q 46.59375 35.703125 45.796875 35.703125 
L 41.203125 35.703125 
Q 39.703125 35.703125 39.40625 37.40625 
Q 38.90625 40 36.75 41.890625 
Q 34.59375 43.796875 30.703125 43.796875 
Q 26.90625 43.796875 24.546875 42.09375 
Q 22.203125 40.40625 22.203125 37.703125 
Q 22.203125 35 24.84375 33.09375 
Q 27.5 31.203125 31.25 29.890625 
Q 35 28.59375 38.703125 26.9375 
Q 42.40625 25.296875 45.046875 21.84375 
Q 47.703125 18.40625 47.703125 13.40625 
Q 47.703125 7.40625 42.59375 3.203125 
Q 37.5 -1 30.09375 -1 
z
" id="DecimaMonoPro-115"/>
     <path d="M 42.09375 17.09375 
L 42.09375 33.09375 
Q 42.09375 37.703125 38.84375 40.796875 
Q 35.59375 43.90625 30.5 43.90625 
Q 25.40625 43.90625 22.046875 40.75 
Q 18.703125 37.59375 18.703125 33 
L 18.703125 17.09375 
Q 18.703125 12.5 22.046875 9.390625 
Q 25.40625 6.296875 30.5 6.296875 
Q 35.59375 6.296875 38.84375 9.390625 
Q 42.09375 12.5 42.09375 17.09375 
z
M 18.703125 3.703125 
L 18.796875 -16.203125 
Q 18.796875 -18 16.5 -18 
L 13 -18 
Q 10.703125 -18 10.703125 -16.203125 
L 10.703125 48.203125 
Q 10.703125 50 13 50 
L 15.90625 50 
Q 18.203125 50 18.203125 48.203125 
L 18.203125 45.90625 
Q 18.59375 46.5 19.5 47.34375 
Q 20.40625 48.203125 23.75 49.59375 
Q 27.09375 51 31.296875 51 
Q 39.296875 51 44.796875 45.640625 
Q 50.296875 40.296875 50.296875 32.59375 
L 50.296875 17.40625 
Q 50.296875 9.796875 44.75 4.390625 
Q 39.203125 -1 31.296875 -1 
Q 27.40625 -1 24.25 0.203125 
Q 21.09375 1.40625 19.90625 2.59375 
z
" id="DecimaMonoPro-112"/>
     <path d="M 37.203125 51 
Q 44.09375 51 48.140625 46.453125 
Q 52.203125 41.90625 52.203125 37.5 
Q 52.203125 35.703125 50.5 35.703125 
L 45.90625 35.703125 
Q 44.296875 35.703125 44.09375 37.40625 
Q 43.796875 39.796875 41.75 41.796875 
Q 39.703125 43.796875 36.59375 43.796875 
Q 32.40625 43.796875 29.203125 40.796875 
Q 26 37.796875 26 34 
L 26 7.203125 
L 45.09375 7.203125 
Q 45.796875 7.203125 46.34375 6.703125 
Q 46.90625 6.203125 46.90625 5.40625 
L 46.90625 1.796875 
Q 46.90625 1 46.34375 0.5 
Q 45.796875 0 45.09375 0 
L 9.296875 0 
Q 8.59375 0 8.046875 0.5 
Q 7.5 1 7.5 1.796875 
L 7.5 5.40625 
Q 7.5 6.203125 8.046875 6.703125 
Q 8.59375 7.203125 9.296875 7.203125 
L 18 7.203125 
L 18 48.203125 
Q 18 50 20.296875 50 
L 23.5 50 
Q 25.796875 50 25.796875 48.203125 
L 25.796875 45.703125 
Q 29.796875 51 37.203125 51 
z
" id="DecimaMonoPro-114"/>
     <path d="M 48.796875 13.5 
Q 48.796875 9.09375 43.75 4.046875 
Q 38.703125 -1 30.203125 -1 
Q 21.203125 -1 15.75 4.453125 
Q 10.296875 9.90625 10.296875 17.5 
L 10.296875 32.703125 
Q 10.296875 40.203125 15.75 45.59375 
Q 21.203125 51 30.203125 51 
Q 39.203125 51 44.453125 45.59375 
Q 49.703125 40.203125 49.703125 32.703125 
L 49.703125 24.796875 
Q 49.703125 23.796875 49.046875 23.140625 
Q 48.40625 22.5 47.40625 22.5 
L 18.40625 22.5 
L 18.40625 17 
Q 18.40625 12.5 21.65625 9.296875 
Q 24.90625 6.09375 30.203125 6.09375 
Q 38.5 6.09375 40.59375 13.59375 
Q 41.09375 15.296875 42.40625 15.296875 
L 47 15.296875 
Q 47.796875 15.296875 48.296875 14.75 
Q 48.796875 14.203125 48.796875 13.5 
z
M 18.40625 33 
L 18.40625 29.703125 
L 41.796875 29.703125 
L 41.796875 33 
Q 41.796875 37.5 38.640625 40.640625 
Q 35.5 43.796875 30.203125 43.796875 
Q 24.90625 43.796875 21.65625 40.640625 
Q 18.40625 37.5 18.40625 33 
z
" id="DecimaMonoPro-101"/>
     <path d="M 17.90625 32.90625 
L 17.90625 16.90625 
Q 17.90625 12.296875 21.15625 9.1875 
Q 24.40625 6.09375 29.5 6.09375 
Q 34.59375 6.09375 37.9375 9.25 
Q 41.296875 12.40625 41.296875 17 
L 41.296875 32.90625 
Q 41.296875 37.5 37.9375 40.59375 
Q 34.59375 43.703125 29.5 43.703125 
Q 24.40625 43.703125 21.15625 40.59375 
Q 17.90625 37.5 17.90625 32.90625 
z
M 41.296875 46.296875 
L 41.203125 68.203125 
Q 41.203125 70 43.5 70 
L 47 70 
Q 49.296875 70 49.296875 68.203125 
L 49.296875 1.796875 
Q 49.296875 0 47 0 
L 44.09375 0 
Q 41.796875 0 41.796875 1.796875 
L 41.796875 4.09375 
Q 41.40625 3.5 40.5 2.640625 
Q 39.59375 1.796875 36.25 0.390625 
Q 32.90625 -1 28.703125 -1 
Q 20.703125 -1 15.203125 4.34375 
Q 9.703125 9.703125 9.703125 17.40625 
L 9.703125 32.59375 
Q 9.703125 40.203125 15.25 45.59375 
Q 20.796875 51 28.703125 51 
Q 32.59375 51 35.75 49.796875 
Q 38.90625 48.59375 40.09375 47.40625 
z
" id="DecimaMonoPro-100"/>
    </defs>
    <g style="fill:#ffffff;" transform="translate(6.48 496.8)scale(0.14 -0.14)">
     <use xlink:href="#DecimaMonoPro-169"/>
     <use x="59.999985" xlink:href="#DecimaMonoPro-115"/>
     <use x="119.999969" xlink:href="#DecimaMonoPro-112"/>
     <use x="179.999954" xlink:href="#DecimaMonoPro-114"/>
     <use x="239.999939" xlink:href="#DecimaMonoPro-101"/>
     <use x="299.999924" xlink:href="#DecimaMonoPro-100"/>
    </g>
   </g>
   <g id="text_15">
    <!-- bigm -->
    <defs>
     <path d="M 55.203125 25.203125 
C 55.203125 40.796875 47.59375 51.203125 32.5 51.203125 
C 27.5 51.203125 21.296875 48.09375 19 44.796875 
L 19 70.796875 
L 8.59375 70.796875 
L 8.59375 0 
L 19 0 
L 19 5.796875 
C 20.703125 2.90625 26.09375 -0.796875 32.703125 -0.796875 
C 47.59375 -0.796875 55.203125 9.09375 55.203125 25.203125 
z
M 44.203125 25.203125 
C 44.203125 14.796875 38.796875 8.40625 31.296875 8.40625 
C 23.796875 8.40625 18.40625 14.796875 18.40625 25.203125 
C 18.40625 35.59375 23.796875 42 31.296875 42 
C 38.796875 42 44.203125 35.59375 44.203125 25.203125 
z
" id="ApercuPro-Medium-98"/>
     <path d="M 6.09375 64.59375 
C 6.09375 60.59375 9.203125 57.5 13.296875 57.5 
C 17.40625 57.5 20.5 60.59375 20.5 64.59375 
C 20.5 68.59375 17.40625 71.90625 13.296875 71.90625 
C 9.203125 71.90625 6.09375 68.59375 6.09375 64.59375 
z
M 8.09375 50.40625 
L 8.09375 0 
L 18.5 0 
L 18.5 50.40625 
z
" id="ApercuPro-Medium-105"/>
     <path d="M 8.703125 34.296875 
C 8.703125 30 9.90625 26.40625 12.09375 23.703125 
C 8.40625 21.59375 6 18 6 13.5 
C 6 10 7.09375 7.40625 8.90625 5.59375 
C 6.296875 3.203125 4.59375 -0.296875 4.59375 -4.59375 
C 4.59375 -15.59375 14.09375 -21.203125 26.796875 -21.203125 
C 38.09375 -21.203125 48.90625 -16.296875 48.90625 -3.796875 
C 48.90625 5.703125 42.09375 10.59375 32.203125 10.59375 
L 21.09375 10.59375 
C 17.59375 10.59375 15.90625 11.796875 15.90625 14.5 
C 15.90625 16.40625 16.796875 17.90625 18.59375 18.90625 
C 20.90625 18 23.703125 17.40625 26.703125 17.40625 
C 36.90625 17.40625 44.796875 23.703125 44.796875 34.296875 
C 44.796875 37.5 44 40.296875 42.59375 42.703125 
L 49.40625 46.5 
L 45.203125 54 
L 35.90625 49 
C 33.203125 50.40625 30.09375 51.203125 26.703125 51.203125 
C 16.5 51.203125 8.703125 44.796875 8.703125 34.296875 
z
M 30 1.796875 
C 34.90625 1.796875 38.296875 0.203125 38.296875 -4.59375 
C 38.296875 -9.5 34 -12.203125 26.796875 -12.203125 
C 19.09375 -12.203125 14.59375 -9 14.59375 -4 
C 14.59375 -1.40625 15.296875 0.5 16.796875 2.09375 
C 18.40625 1.90625 20.09375 1.796875 21.90625 1.796875 
z
M 18.796875 34.296875 
C 18.796875 39.296875 22.09375 42.5 26.703125 42.5 
C 31.40625 42.5 34.703125 39.296875 34.703125 34.296875 
C 34.703125 29.296875 31.40625 26.09375 26.703125 26.09375 
C 22.09375 26.09375 18.796875 29.296875 18.796875 34.296875 
z
" id="ApercuPro-Medium-103"/>
     <path d="M 8.59375 50.40625 
L 8.59375 0 
L 19 0 
L 19 19.09375 
C 19 34.09375 24.5 42 30.796875 42 
C 35.203125 42 38.203125 39.296875 38.203125 33.796875 
L 38.203125 0 
L 48.59375 0 
L 48.59375 20.203125 
C 48.59375 34.09375 54.203125 42 60.40625 42 
C 64.796875 42 67.796875 39.296875 67.796875 33.796875 
L 67.796875 0 
L 78.203125 0 
L 78.203125 36.09375 
C 78.203125 44.90625 73 51.203125 63.796875 51.203125 
C 57.296875 51.203125 51.59375 47.40625 48.09375 40.796875 
C 46.59375 47.09375 41 51.203125 34.203125 51.203125 
C 28.09375 51.203125 23.09375 48.09375 19 41.796875 
L 19 50.40625 
z
" id="ApercuPro-Medium-109"/>
    </defs>
    <g style="opacity:0.75;" transform="translate(72 50.4)scale(0.3 -0.3)">
     <use xlink:href="#ApercuPro-Medium-98"/>
     <use x="60.084366" xlink:href="#ApercuPro-Medium-105"/>
     <use x="86.653107" xlink:href="#ApercuPro-Medium-103"/>
     <use x="137.753098" xlink:href="#ApercuPro-Medium-109"/>
    </g>
   </g>
   <g id="legend_1">
    <g id="patch_8">
     <path d="M 87.56 106.568438 
L 138.8 106.568438 
Q 141.6 106.568438 141.6 103.768438 
L 141.6 85.4 
Q 141.6 82.6 138.8 82.6 
L 87.56 82.6 
Q 84.76 82.6 84.76 85.4 
L 84.76 103.768438 
Q 84.76 106.568438 87.56 106.568438 
z
" style="fill:#f0f0f0;opacity:0.8;stroke:#cccccc;stroke-linejoin:miter;stroke-width:0.5;"/>
    </g>
    <g id="line2d_25">
     <path d="M 90.36 93.211562 
L 118.36 93.211562 
" style="fill:none;stroke:#000004;stroke-width:3;"/>
    </g>
    <g id="line2d_26"/>
    <g id="text_16">
     <!-- y -->
     <g style="opacity:0.75;" transform="translate(129.56 98.111562)scale(0.14 -0.14)">
      <use xlink:href="#Apercu-121"/>
     </g>
    </g>
   </g>
  </g>
 </g>
 <defs>
  <clipPath id="p377c847e4f">
   <rect height="337.68" width="531.36" x="77.76" y="75.6"/>
  </clipPath>
 </defs>
</svg>
