<?xml version="1.0" encoding="utf-8" standalone="no"?>
<!DOCTYPE svg PUBLIC "-//W3C//DTD SVG 1.1//EN"
  "http://www.w3.org/Graphics/SVG/1.1/DTD/svg11.dtd">
<!-- Created with matplotlib (https://matplotlib.org/) -->
<svg height="504pt" version="1.1" viewBox="0 0 648 504" width="648pt" xmlns="http://www.w3.org/2000/svg" xmlns:xlink="http://www.w3.org/1999/xlink">
 <defs>
  <style type="text/css">
*{stroke-linecap:butt;stroke-linejoin:round;}
  </style>
 </defs>
 <g id="figure_1">
  <g id="patch_1">
   <path d="M 0 504 
L 648 504 
L 648 0 
L 0 0 
z
" style="fill:#f0f0f0;"/>
  </g>
  <g id="axes_1">
   <g id="patch_2">
    <path d="M 77.76 413.28 
L 609.12 413.28 
L 609.12 75.6 
L 77.76 75.6 
z
" style="fill:#f0f0f0;"/>
   </g>
   <g id="matplotlib.axis_1">
    <g id="xtick_1">
     <g id="line2d_1">
      <path clip-path="url(#p23acd95866)" d="M 77.76 413.28 
L 77.76 75.6 
" style="fill:none;stroke:#b0b0b0;stroke-linecap:square;stroke-width:0.8;"/>
     </g>
     <g id="line2d_2">
      <defs>
       <path d="M 0 0 
L 0 3.5 
" id="m262cde7fb2" style="stroke:#000000;stroke-width:0.8;"/>
      </defs>
      <g>
       <use style="stroke:#000000;stroke-width:0.8;" x="77.76" xlink:href="#m262cde7fb2" y="413.28"/>
      </g>
     </g>
     <g id="text_1">
      <!-- 0 -->
      <defs>
       <path d="M 48.203125 52.59375 
L 48.203125 17.40625 
Q 48.203125 9.703125 42.953125 4.34375 
Q 37.703125 -1 29.890625 -1 
Q 22.09375 -1 16.9375 4.390625 
Q 11.796875 9.796875 11.796875 17.5 
L 11.796875 52.59375 
Q 11.796875 60.296875 16.9375 65.640625 
Q 22.09375 71 29.890625 71 
Q 37.703125 71 42.953125 65.640625 
Q 48.203125 60.296875 48.203125 52.59375 
z
M 39.90625 17.296875 
L 39.90625 52.5 
Q 39.90625 56.90625 37 60 
Q 34.09375 63.09375 29.90625 63.09375 
Q 25.796875 63.09375 22.890625 60 
Q 20 56.90625 20 52.5 
L 20 17.40625 
Q 20 13 22.890625 9.953125 
Q 25.796875 6.90625 30 6.90625 
Q 34.09375 6.90625 37 9.90625 
Q 39.90625 12.90625 39.90625 17.296875 
z
" id="DecimaMonoPro-48"/>
      </defs>
      <g style="fill:#303030;" transform="translate(73.56 430.093125)scale(0.14 -0.14)">
       <use xlink:href="#DecimaMonoPro-48"/>
      </g>
     </g>
    </g>
    <g id="xtick_2">
     <g id="line2d_3">
      <path clip-path="url(#p23acd95866)" d="M 184.138378 413.28 
L 184.138378 75.6 
" style="fill:none;stroke:#b0b0b0;stroke-linecap:square;stroke-width:0.8;"/>
     </g>
     <g id="line2d_4">
      <g>
       <use style="stroke:#000000;stroke-width:0.8;" x="184.138378" xlink:href="#m262cde7fb2" y="413.28"/>
      </g>
     </g>
     <g id="text_2">
      <!-- 200 -->
      <defs>
       <path d="M 11.703125 53 
Q 11.703125 59.703125 17.203125 65.34375 
Q 22.703125 71 30.59375 71 
Q 38.40625 71 43.796875 65.75 
Q 49.203125 60.5 49.203125 52.703125 
Q 49.203125 46.90625 46.09375 41.75 
Q 43 36.59375 38.59375 32.84375 
Q 34.203125 29.09375 29.796875 25.4375 
Q 25.40625 21.796875 22.296875 17.296875 
Q 19.203125 12.796875 19.203125 7.796875 
L 47.40625 7.796875 
Q 48.203125 7.796875 48.703125 7.296875 
Q 49.203125 6.796875 49.203125 6 
L 49.203125 1.796875 
Q 49.203125 1 48.703125 0.5 
Q 48.203125 0 47.40625 0 
L 12.59375 0 
Q 11.796875 0 11.296875 0.5 
Q 10.796875 1 10.796875 1.796875 
L 10.796875 7.296875 
Q 10.796875 13.90625 13.890625 19.453125 
Q 17 25 21.390625 28.890625 
Q 25.796875 32.796875 30.1875 36.390625 
Q 34.59375 40 37.6875 44.296875 
Q 40.796875 48.59375 40.796875 53.296875 
Q 40.796875 57.40625 37.75 60.25 
Q 34.703125 63.09375 30.5 63.09375 
Q 26.09375 63.09375 23.1875 59.6875 
Q 20.296875 56.296875 20.09375 53 
Q 19.90625 51 17.796875 51 
L 14 51 
Q 12.90625 51 12.296875 51.59375 
Q 11.703125 52.203125 11.703125 53 
z
" id="DecimaMonoPro-50"/>
      </defs>
      <g style="fill:#303030;" transform="translate(171.538378 430.093125)scale(0.14 -0.14)">
       <use xlink:href="#DecimaMonoPro-50"/>
       <use x="59.999985" xlink:href="#DecimaMonoPro-48"/>
       <use x="119.999969" xlink:href="#DecimaMonoPro-48"/>
      </g>
     </g>
    </g>
    <g id="xtick_3">
     <g id="line2d_5">
      <path clip-path="url(#p23acd95866)" d="M 290.516757 413.28 
L 290.516757 75.6 
" style="fill:none;stroke:#b0b0b0;stroke-linecap:square;stroke-width:0.8;"/>
     </g>
     <g id="line2d_6">
      <g>
       <use style="stroke:#000000;stroke-width:0.8;" x="290.516757" xlink:href="#m262cde7fb2" y="413.28"/>
      </g>
     </g>
     <g id="text_3">
      <!-- 400 -->
      <defs>
       <path d="M 40.09375 67.5 
L 19.5 22.90625 
L 35.796875 22.90625 
L 35.796875 38.90625 
Q 35.796875 39.703125 36.390625 40.296875 
Q 37 40.90625 38.09375 40.90625 
L 42.203125 40.90625 
Q 43 40.90625 43.59375 40.25 
Q 44.203125 39.59375 44.203125 38.90625 
L 44.203125 22.90625 
L 48 22.90625 
Q 48.796875 22.90625 49.390625 22.296875 
Q 50 21.703125 50 20.59375 
L 50 17.40625 
Q 50 16.296875 49.390625 15.6875 
Q 48.796875 15.09375 48 15.09375 
L 44.203125 15.09375 
L 44.203125 2 
Q 44.203125 1.203125 43.59375 0.59375 
Q 43 0 42.203125 0 
L 38.09375 0 
Q 37 0 36.390625 0.59375 
Q 35.796875 1.203125 35.796875 2 
L 35.796875 15.09375 
L 12.09375 15.09375 
Q 9.90625 15.09375 9.90625 17.40625 
L 9.90625 21.296875 
Q 9.90625 22.5 11 24.703125 
L 31.296875 68 
Q 32.296875 70 34 70 
L 38.796875 70 
Q 40.5 70 40.5 68.796875 
Q 40.5 68.5 40.09375 67.5 
z
" id="DecimaMonoPro-52"/>
      </defs>
      <g style="fill:#303030;" transform="translate(277.916757 430.093125)scale(0.14 -0.14)">
       <use xlink:href="#DecimaMonoPro-52"/>
       <use x="59.999985" xlink:href="#DecimaMonoPro-48"/>
       <use x="119.999969" xlink:href="#DecimaMonoPro-48"/>
      </g>
     </g>
    </g>
    <g id="xtick_4">
     <g id="line2d_7">
      <path clip-path="url(#p23acd95866)" d="M 396.895135 413.28 
L 396.895135 75.6 
" style="fill:none;stroke:#b0b0b0;stroke-linecap:square;stroke-width:0.8;"/>
     </g>
     <g id="line2d_8">
      <g>
       <use style="stroke:#000000;stroke-width:0.8;" x="396.895135" xlink:href="#m262cde7fb2" y="413.28"/>
      </g>
     </g>
     <g id="text_4">
      <!-- 600 -->
      <defs>
       <path d="M 11 60.203125 
Q 21.59375 71 29.5 71 
Q 37.40625 71 42.65625 65.953125 
Q 47.90625 60.90625 47.90625 54.40625 
Q 47.90625 53.59375 47.296875 53 
Q 46.703125 52.40625 45.59375 52.40625 
L 41.796875 52.40625 
Q 39.703125 52.40625 39.5 54.40625 
Q 39.296875 57.59375 36.640625 60.296875 
Q 34 63 29.5 63 
Q 25.203125 63 22.25 59.890625 
Q 19.296875 56.796875 19.296875 52.40625 
L 19.296875 42.796875 
Q 19.703125 43.296875 20.59375 44.046875 
Q 21.5 44.796875 24.546875 46 
Q 27.59375 47.203125 31 47.203125 
Q 38.40625 47.203125 43.703125 42 
Q 49 36.796875 49 28.90625 
L 49 17.5 
Q 49 9.796875 43.546875 4.390625 
Q 38.09375 -1 30 -1 
Q 21.90625 -1 16.453125 4.34375 
Q 11 9.703125 11 17.40625 
L 11 52.5 
Q 11 60.203125 21.59375 71 
z
M 30 39.296875 
Q 25.40625 39.296875 22.34375 36.390625 
Q 19.296875 33.5 19.296875 28.796875 
L 19.296875 17.296875 
Q 19.296875 12.90625 22.390625 9.90625 
Q 25.5 6.90625 30 6.90625 
Q 34.40625 6.90625 37.5 9.953125 
Q 40.59375 13 40.59375 17.40625 
L 40.59375 28.796875 
Q 40.59375 33.40625 37.546875 36.34375 
Q 34.5 39.296875 30 39.296875 
z
" id="DecimaMonoPro-54"/>
      </defs>
      <g style="fill:#303030;" transform="translate(384.295135 430.093125)scale(0.14 -0.14)">
       <use xlink:href="#DecimaMonoPro-54"/>
       <use x="59.999985" xlink:href="#DecimaMonoPro-48"/>
       <use x="119.999969" xlink:href="#DecimaMonoPro-48"/>
      </g>
     </g>
    </g>
    <g id="xtick_5">
     <g id="line2d_9">
      <path clip-path="url(#p23acd95866)" d="M 503.273514 413.28 
L 503.273514 75.6 
" style="fill:none;stroke:#b0b0b0;stroke-linecap:square;stroke-width:0.8;"/>
     </g>
     <g id="line2d_10">
      <g>
       <use style="stroke:#000000;stroke-width:0.8;" x="503.273514" xlink:href="#m262cde7fb2" y="413.28"/>
      </g>
     </g>
     <g id="text_5">
      <!-- 800 -->
      <defs>
       <path d="M 48.09375 53.5 
L 48.09375 49.796875 
Q 48.09375 41.5 41.796875 36.40625 
Q 49 30.796875 49 21.703125 
L 49 17.40625 
Q 49 9.703125 43.640625 4.34375 
Q 38.296875 -1 30.5 -1 
L 29.59375 -1 
Q 21.796875 -1 16.390625 4.390625 
Q 11 9.796875 11 17.5 
L 11 21.703125 
Q 11 30.703125 18.296875 36.40625 
Q 11.796875 41.296875 11.796875 49.90625 
L 11.796875 53.5 
Q 11.796875 60.796875 16.9375 65.890625 
Q 22.09375 71 29.5 71 
L 30.40625 71 
Q 37.796875 71 42.9375 65.890625 
Q 48.09375 60.796875 48.09375 53.5 
z
M 40.59375 17.296875 
L 40.59375 21.59375 
Q 40.59375 26 37.5 29.09375 
Q 34.40625 32.203125 30 32.203125 
Q 25.59375 32.203125 22.5 29.09375 
Q 19.40625 26 19.40625 21.59375 
L 19.40625 17.40625 
Q 19.40625 13 22.546875 9.953125 
Q 25.703125 6.90625 30.203125 6.90625 
Q 34.5 6.90625 37.546875 9.90625 
Q 40.59375 12.90625 40.59375 17.296875 
z
M 39.703125 49.703125 
L 39.703125 53.09375 
Q 39.703125 57.296875 36.84375 60.1875 
Q 34 63.09375 29.796875 63.09375 
Q 25.796875 63.09375 23 60.1875 
Q 20.203125 57.296875 20.203125 53.09375 
L 20.203125 49.796875 
Q 20.203125 45.90625 22.84375 43 
Q 25.5 40.09375 29.59375 40.09375 
L 30.5 40.09375 
Q 34.296875 40.09375 37 42.84375 
Q 39.703125 45.59375 39.703125 49.703125 
z
" id="DecimaMonoPro-56"/>
      </defs>
      <g style="fill:#303030;" transform="translate(490.673514 430.093125)scale(0.14 -0.14)">
       <use xlink:href="#DecimaMonoPro-56"/>
       <use x="59.999985" xlink:href="#DecimaMonoPro-48"/>
       <use x="119.999969" xlink:href="#DecimaMonoPro-48"/>
      </g>
     </g>
    </g>
    <g id="text_6">
     <!-- x -->
     <defs>
      <path d="M 3.59375 50.40625 
L 13.09375 50.40625 
L 22.90625 34.40625 
L 32.703125 50.40625 
L 42.203125 50.40625 
L 27.59375 26.59375 
L 44 0 
L 34.5 0 
L 22.90625 18.90625 
L 11.296875 0 
L 1.796875 0 
L 18.203125 26.59375 
z
" id="Apercu-120"/>
     </defs>
     <g style="opacity:0.75;" transform="translate(340.234219 446.524687)scale(0.14 -0.14)">
      <use xlink:href="#Apercu-120"/>
     </g>
    </g>
   </g>
   <g id="matplotlib.axis_2">
    <g id="ytick_1">
     <g id="line2d_11">
      <path clip-path="url(#p23acd95866)" d="M 77.76 397.930909 
L 609.12 397.930909 
" style="fill:none;stroke:#b0b0b0;stroke-linecap:square;stroke-width:0.8;"/>
     </g>
     <g id="line2d_12">
      <defs>
       <path d="M 0 0 
L -3.5 0 
" id="m32694c3750" style="stroke:#000000;stroke-width:0.8;"/>
      </defs>
      <g>
       <use style="stroke:#000000;stroke-width:0.8;" x="77.76" xlink:href="#m32694c3750" y="397.930909"/>
      </g>
     </g>
     <g id="text_7">
      <!-- 0 -->
      <g style="fill:#303030;" transform="translate(62.36 402.837472)scale(0.14 -0.14)">
       <use xlink:href="#DecimaMonoPro-48"/>
      </g>
     </g>
    </g>
    <g id="ytick_2">
     <g id="line2d_13">
      <path clip-path="url(#p23acd95866)" d="M 77.76 323.511074 
L 609.12 323.511074 
" style="fill:none;stroke:#b0b0b0;stroke-linecap:square;stroke-width:0.8;"/>
     </g>
     <g id="line2d_14">
      <g>
       <use style="stroke:#000000;stroke-width:0.8;" x="77.76" xlink:href="#m32694c3750" y="323.511074"/>
      </g>
     </g>
     <g id="text_8">
      <!-- 200 -->
      <g style="fill:#303030;" transform="translate(45.56 328.417637)scale(0.14 -0.14)">
       <use xlink:href="#DecimaMonoPro-50"/>
       <use x="59.999985" xlink:href="#DecimaMonoPro-48"/>
       <use x="119.999969" xlink:href="#DecimaMonoPro-48"/>
      </g>
     </g>
    </g>
    <g id="ytick_3">
     <g id="line2d_15">
      <path clip-path="url(#p23acd95866)" d="M 77.76 249.09124 
L 609.12 249.09124 
" style="fill:none;stroke:#b0b0b0;stroke-linecap:square;stroke-width:0.8;"/>
     </g>
     <g id="line2d_16">
      <g>
       <use style="stroke:#000000;stroke-width:0.8;" x="77.76" xlink:href="#m32694c3750" y="249.09124"/>
      </g>
     </g>
     <g id="text_9">
      <!-- 400 -->
      <g style="fill:#303030;" transform="translate(45.56 253.997802)scale(0.14 -0.14)">
       <use xlink:href="#DecimaMonoPro-52"/>
       <use x="59.999985" xlink:href="#DecimaMonoPro-48"/>
       <use x="119.999969" xlink:href="#DecimaMonoPro-48"/>
      </g>
     </g>
    </g>
    <g id="ytick_4">
     <g id="line2d_17">
      <path clip-path="url(#p23acd95866)" d="M 77.76 174.671405 
L 609.12 174.671405 
" style="fill:none;stroke:#b0b0b0;stroke-linecap:square;stroke-width:0.8;"/>
     </g>
     <g id="line2d_18">
      <g>
       <use style="stroke:#000000;stroke-width:0.8;" x="77.76" xlink:href="#m32694c3750" y="174.671405"/>
      </g>
     </g>
     <g id="text_10">
      <!-- 600 -->
      <g style="fill:#303030;" transform="translate(45.56 179.577967)scale(0.14 -0.14)">
       <use xlink:href="#DecimaMonoPro-54"/>
       <use x="59.999985" xlink:href="#DecimaMonoPro-48"/>
       <use x="119.999969" xlink:href="#DecimaMonoPro-48"/>
      </g>
     </g>
    </g>
    <g id="ytick_5">
     <g id="line2d_19">
      <path clip-path="url(#p23acd95866)" d="M 77.76 100.25157 
L 609.12 100.25157 
" style="fill:none;stroke:#b0b0b0;stroke-linecap:square;stroke-width:0.8;"/>
     </g>
     <g id="line2d_20">
      <g>
       <use style="stroke:#000000;stroke-width:0.8;" x="77.76" xlink:href="#m32694c3750" y="100.25157"/>
      </g>
     </g>
     <g id="text_11">
      <!-- 800 -->
      <g style="fill:#303030;" transform="translate(45.56 105.158133)scale(0.14 -0.14)">
       <use xlink:href="#DecimaMonoPro-56"/>
       <use x="59.999985" xlink:href="#DecimaMonoPro-48"/>
       <use x="119.999969" xlink:href="#DecimaMonoPro-48"/>
      </g>
     </g>
    </g>
    <g id="text_12">
     <!-- y -->
     <defs>
      <path d="M 36 50.40625 
L 44.796875 50.40625 
L 19.796875 -20.40625 
L 11.203125 -20.40625 
L 19.203125 2.09375 
L 1.5 50.40625 
L 10.703125 50.40625 
L 23.5 14 
z
" id="Apercu-121"/>
     </defs>
     <g style="opacity:0.75;" transform="translate(38.703125 247.66)rotate(-90)scale(0.14 -0.14)">
      <use xlink:href="#Apercu-121"/>
     </g>
    </g>
   </g>
   <g id="line2d_21">
    <path clip-path="url(#p23acd95866)" d="M 77.76 191.415868 
L 78.291892 191.415868 
L 78.823784 192.532165 
L 79.887568 196.625256 
L 83.078919 207.416132 
L 83.610811 207.788231 
L 84.142703 208.53243 
L 84.674595 208.53243 
L 85.206486 208.160331 
L 85.738378 207.044033 
L 86.27027 206.671934 
L 86.802162 205.927736 
L 88.92973 204.439339 
L 89.461622 204.439339 
L 90.525405 203.69514 
L 91.057297 203.69514 
L 92.121081 202.950942 
L 93.184865 202.950942 
L 94.248649 202.206744 
L 95.312432 202.206744 
L 95.844324 201.834645 
L 98.503784 201.834645 
L 99.035676 202.206744 
L 99.567568 202.950942 
L 100.099459 206.299835 
L 101.163243 211.881322 
L 101.695135 212.99762 
L 102.227027 214.486017 
L 102.758919 215.230215 
L 103.290811 217.090711 
L 103.822703 220.067504 
L 104.886486 224.904793 
L 105.95027 231.974678 
L 107.014054 236.811967 
L 107.545946 239.044562 
L 108.60973 242.021355 
L 109.141622 243.137653 
L 110.737297 244.25395 
L 112.864865 244.25395 
L 113.396757 243.881851 
L 113.928649 242.765554 
L 114.460541 240.16086 
L 114.992432 236.439868 
L 115.524324 231.602579 
L 118.183784 213.369719 
L 118.715676 210.392926 
L 119.247568 205.555636 
L 120.311351 199.22995 
L 120.843243 196.625256 
L 121.375135 194.76476 
L 121.907027 191.415868 
L 122.970811 183.601785 
L 123.502703 180.252893 
L 124.034595 176.159802 
L 124.566486 173.183008 
L 126.162162 162.392132 
L 126.694054 159.787438 
L 127.757838 153.089653 
L 128.28973 151.973355 
L 128.821622 150.484959 
L 129.885405 148.996562 
L 130.417297 148.996562 
L 132.012973 147.880264 
L 133.076757 146.391868 
L 134.672432 140.438281 
L 135.736216 134.856793 
L 136.8 127.786909 
L 137.331892 123.693818 
L 137.863784 121.089124 
L 138.395676 119.228628 
L 138.927568 118.112331 
L 139.459459 116.623934 
L 139.991351 115.507636 
L 141.587027 113.275041 
L 142.118919 112.902942 
L 142.650811 112.158744 
L 143.714595 111.414545 
L 144.246486 111.414545 
L 145.31027 110.670347 
L 145.842162 110.670347 
L 146.374054 113.275041 
L 148.501622 130.391603 
L 149.565405 140.066182 
L 150.629189 151.601256 
L 154.352432 189.555372 
L 156.48 201.090446 
L 158.075676 206.299835 
L 158.607568 207.044033 
L 159.139459 208.160331 
L 160.203243 209.648727 
L 160.735135 210.020826 
L 161.267027 210.765025 
L 162.862703 211.881322 
L 163.394595 211.881322 
L 164.458378 211.137124 
L 164.99027 210.020826 
L 165.522162 206.671934 
L 166.585946 195.508959 
L 167.117838 191.415868 
L 167.64973 186.206479 
L 169.245405 165.368926 
L 169.777297 162.020033 
L 170.841081 156.810645 
L 171.904865 153.833851 
L 172.436757 153.089653 
L 172.968649 151.973355 
L 173.500541 151.229157 
L 175.628108 149.74076 
L 176.16 149.74076 
L 176.691892 149.368661 
L 177.223784 148.624463 
L 177.755676 148.624463 
L 178.819459 147.880264 
L 180.947027 147.880264 
L 181.478919 148.624463 
L 182.010811 149.74076 
L 182.542703 150.484959 
L 183.074595 153.461752 
L 184.138378 161.647934 
L 184.67027 167.601521 
L 185.202162 175.787702 
L 186.797838 191.787967 
L 188.393514 205.183537 
L 188.925405 208.53243 
L 189.457297 210.392926 
L 191.052973 213.741818 
L 191.584865 214.486017 
L 192.116757 214.486017 
L 193.712432 215.602314 
L 194.244324 215.602314 
L 195.308108 214.858116 
L 195.84 214.858116 
L 196.371892 214.113917 
L 196.903784 212.253421 
L 197.967568 202.206744 
L 198.499459 195.881058 
L 199.031351 192.532165 
L 200.095135 180.252893 
L 200.627027 169.089917 
L 202.222703 152.717554 
L 203.286486 131.88 
L 203.818378 127.786909 
L 205.945946 105.833058 
L 206.477838 102.484165 
L 207.00973 99.879471 
L 207.541622 99.135273 
L 208.073514 98.018975 
L 208.605405 97.646876 
L 209.137297 96.902678 
L 210.201081 96.158479 
L 210.732973 96.158479 
L 211.796757 95.414281 
L 212.328649 92.437488 
L 212.860541 92.065388 
L 213.392432 92.065388 
L 213.924324 91.693289 
L 214.456216 90.949091 
L 214.988108 91.32119 
L 215.52 92.065388 
L 217.115676 92.065388 
L 217.647568 92.437488 
L 218.179459 93.181686 
L 218.711351 94.297983 
L 219.243243 95.042182 
L 219.775135 96.902678 
L 220.307027 99.507372 
L 220.838919 101.367868 
L 221.370811 104.344661 
L 221.902703 106.205157 
L 222.434595 108.809851 
L 222.966486 110.670347 
L 224.03027 112.902942 
L 229.881081 112.902942 
L 230.944865 112.158744 
L 231.476757 114.01924 
L 233.604324 131.88 
L 234.136216 137.833587 
L 234.668108 145.27557 
L 235.731892 156.438545 
L 236.795676 163.50843 
L 237.327568 167.229421 
L 238.391351 170.206215 
L 238.923243 171.322512 
L 239.987027 172.066711 
L 240.518919 172.066711 
L 241.050811 172.43881 
L 244.774054 172.43881 
L 245.305946 173.927207 
L 245.837838 175.043504 
L 246.36973 177.276099 
L 246.901622 178.392397 
L 247.433514 179.880793 
L 249.029189 183.229686 
L 249.561081 183.973884 
L 250.092973 184.345983 
L 250.624865 185.462281 
L 251.156757 186.950678 
L 252.220541 188.439074 
L 253.816216 189.555372 
L 255.411892 189.555372 
L 255.943784 189.183273 
L 256.475676 189.183273 
L 258.071351 188.066975 
L 259.135135 186.578579 
L 259.667027 183.973884 
L 260.198919 173.555107 
L 260.730811 165.368926 
L 261.794595 153.461752 
L 262.858378 137.461488 
L 263.39027 132.624198 
L 263.922162 128.903207 
L 265.517838 114.01924 
L 266.04973 111.042446 
L 267.113514 107.693554 
L 268.709189 105.460959 
L 269.772973 104.71676 
L 270.304865 104.71676 
L 271.368649 103.972562 
L 274.028108 103.972562 
L 275.091892 102.484165 
L 275.623784 102.484165 
L 276.155676 101.367868 
L 277.219459 99.879471 
L 277.751351 100.25157 
L 278.283243 100.25157 
L 278.815135 100.623669 
L 279.347027 101.367868 
L 279.878919 101.739967 
L 280.410811 101.739967 
L 280.942703 102.112066 
L 284.134054 102.112066 
L 284.665946 106.205157 
L 286.793514 127.786909 
L 287.857297 132.996298 
L 288.389189 134.112595 
L 288.921081 135.600992 
L 291.048649 138.577785 
L 292.112432 139.321983 
L 293.176216 139.321983 
L 293.708108 191.415868 
L 294.24 191.415868 
L 294.771892 192.532165 
L 295.835676 196.625256 
L 299.027027 207.416132 
L 299.558919 207.788231 
L 300.090811 208.53243 
L 300.622703 208.53243 
L 301.154595 208.160331 
L 301.686486 207.044033 
L 302.218378 206.671934 
L 302.75027 205.927736 
L 304.877838 204.439339 
L 305.40973 204.439339 
L 306.473514 203.69514 
L 307.005405 203.69514 
L 308.069189 202.950942 
L 309.132973 202.950942 
L 310.196757 202.206744 
L 311.260541 202.206744 
L 311.792432 201.834645 
L 314.451892 201.834645 
L 314.983784 202.206744 
L 315.515676 202.950942 
L 316.047568 206.299835 
L 317.111351 211.881322 
L 317.643243 212.99762 
L 318.175135 214.486017 
L 318.707027 215.230215 
L 319.238919 217.090711 
L 319.770811 220.067504 
L 320.834595 224.904793 
L 321.898378 231.974678 
L 322.962162 236.811967 
L 323.494054 239.044562 
L 324.557838 242.021355 
L 325.08973 243.137653 
L 326.685405 244.25395 
L 328.812973 244.25395 
L 329.344865 243.881851 
L 329.876757 242.765554 
L 330.408649 240.16086 
L 330.940541 236.439868 
L 331.472432 231.602579 
L 334.131892 213.369719 
L 334.663784 210.392926 
L 335.195676 205.555636 
L 336.259459 199.22995 
L 336.791351 196.625256 
L 337.323243 194.76476 
L 337.855135 191.415868 
L 338.918919 183.601785 
L 339.450811 180.252893 
L 339.982703 176.159802 
L 340.514595 173.183008 
L 342.11027 162.392132 
L 342.642162 159.787438 
L 343.705946 153.089653 
L 344.237838 151.973355 
L 344.76973 150.484959 
L 345.833514 148.996562 
L 346.365405 148.996562 
L 347.961081 147.880264 
L 349.024865 146.391868 
L 350.620541 140.438281 
L 351.684324 134.856793 
L 352.748108 127.786909 
L 353.28 123.693818 
L 353.811892 121.089124 
L 354.343784 119.228628 
L 354.875676 118.112331 
L 355.407568 116.623934 
L 355.939459 115.507636 
L 357.535135 113.275041 
L 358.067027 112.902942 
L 358.598919 112.158744 
L 359.662703 111.414545 
L 360.194595 111.414545 
L 361.258378 110.670347 
L 361.79027 110.670347 
L 362.322162 113.275041 
L 364.44973 130.391603 
L 365.513514 140.066182 
L 366.577297 151.601256 
L 370.300541 189.555372 
L 372.428108 201.090446 
L 374.023784 206.299835 
L 374.555676 207.044033 
L 375.087568 208.160331 
L 376.151351 209.648727 
L 376.683243 210.020826 
L 377.215135 210.765025 
L 378.810811 211.881322 
L 379.342703 211.881322 
L 380.406486 211.137124 
L 380.938378 210.020826 
L 381.47027 206.671934 
L 382.534054 195.508959 
L 383.065946 191.415868 
L 383.597838 186.206479 
L 385.193514 165.368926 
L 385.725405 162.020033 
L 386.789189 156.810645 
L 387.852973 153.833851 
L 388.384865 153.089653 
L 388.916757 151.973355 
L 389.448649 151.229157 
L 391.576216 149.74076 
L 392.108108 149.74076 
L 392.64 149.368661 
L 393.171892 148.624463 
L 393.703784 148.624463 
L 394.767568 147.880264 
L 396.895135 147.880264 
L 397.427027 148.624463 
L 397.958919 149.74076 
L 398.490811 150.484959 
L 399.022703 153.461752 
L 400.086486 161.647934 
L 400.618378 167.601521 
L 401.15027 175.787702 
L 402.745946 191.787967 
L 404.341622 205.183537 
L 404.873514 208.53243 
L 405.405405 210.392926 
L 407.001081 213.741818 
L 407.532973 214.486017 
L 408.064865 214.486017 
L 409.660541 215.602314 
L 410.192432 215.602314 
L 411.256216 214.858116 
L 411.788108 214.858116 
L 412.32 214.113917 
L 412.851892 212.253421 
L 413.915676 202.206744 
L 414.447568 195.881058 
L 414.979459 192.532165 
L 416.043243 180.252893 
L 416.575135 169.089917 
L 418.170811 152.717554 
L 419.234595 131.88 
L 419.766486 127.786909 
L 421.894054 105.833058 
L 422.425946 102.484165 
L 422.957838 99.879471 
L 423.48973 99.135273 
L 424.021622 98.018975 
L 424.553514 97.646876 
L 425.085405 96.902678 
L 426.149189 96.158479 
L 426.681081 96.158479 
L 427.744865 95.414281 
L 428.276757 92.437488 
L 428.808649 92.065388 
L 429.340541 92.065388 
L 429.872432 91.693289 
L 430.404324 90.949091 
L 430.936216 91.32119 
L 431.468108 92.065388 
L 433.063784 92.065388 
L 433.595676 92.437488 
L 434.127568 93.181686 
L 434.659459 94.297983 
L 435.191351 95.042182 
L 435.723243 96.902678 
L 436.255135 99.507372 
L 436.787027 101.367868 
L 437.318919 104.344661 
L 437.850811 106.205157 
L 438.382703 108.809851 
L 438.914595 110.670347 
L 439.978378 112.902942 
L 445.829189 112.902942 
L 446.892973 112.158744 
L 447.424865 114.01924 
L 449.552432 131.88 
L 450.084324 137.833587 
L 450.616216 145.27557 
L 451.68 156.438545 
L 452.743784 163.50843 
L 453.275676 167.229421 
L 454.339459 170.206215 
L 454.871351 171.322512 
L 455.935135 172.066711 
L 456.467027 172.066711 
L 456.998919 172.43881 
L 460.722162 172.43881 
L 461.254054 173.927207 
L 461.785946 175.043504 
L 462.317838 177.276099 
L 462.84973 178.392397 
L 463.381622 179.880793 
L 464.977297 183.229686 
L 465.509189 183.973884 
L 466.041081 184.345983 
L 466.572973 185.462281 
L 467.104865 186.950678 
L 468.168649 188.439074 
L 469.764324 189.555372 
L 471.36 189.555372 
L 471.891892 189.183273 
L 472.423784 189.183273 
L 474.019459 188.066975 
L 475.083243 186.578579 
L 475.615135 183.973884 
L 476.147027 173.555107 
L 476.678919 165.368926 
L 477.742703 153.461752 
L 478.806486 137.461488 
L 479.338378 132.624198 
L 479.87027 128.903207 
L 481.465946 114.01924 
L 481.997838 111.042446 
L 483.061622 107.693554 
L 484.657297 105.460959 
L 485.721081 104.71676 
L 486.252973 104.71676 
L 487.316757 103.972562 
L 489.976216 103.972562 
L 491.04 102.484165 
L 491.571892 102.484165 
L 492.103784 101.367868 
L 493.167568 99.879471 
L 493.699459 100.25157 
L 494.231351 100.25157 
L 494.763243 100.623669 
L 495.295135 101.367868 
L 495.827027 101.739967 
L 496.358919 101.739967 
L 496.890811 102.112066 
L 500.082162 102.112066 
L 500.614054 106.205157 
L 502.741622 127.786909 
L 503.805405 132.996298 
L 504.337297 134.112595 
L 504.869189 135.600992 
L 506.996757 138.577785 
L 508.060541 139.321983 
L 509.124324 139.321983 
L 509.656216 191.415868 
L 510.188108 191.415868 
L 510.72 192.532165 
L 511.783784 196.625256 
L 514.975135 207.416132 
L 515.507027 207.788231 
L 516.038919 208.53243 
L 516.570811 208.53243 
L 517.102703 208.160331 
L 517.634595 207.044033 
L 518.166486 206.671934 
L 518.698378 205.927736 
L 520.825946 204.439339 
L 521.357838 204.439339 
L 522.421622 203.69514 
L 522.953514 203.69514 
L 524.017297 202.950942 
L 525.081081 202.950942 
L 526.144865 202.206744 
L 527.208649 202.206744 
L 527.740541 201.834645 
L 530.4 201.834645 
L 530.931892 202.206744 
L 531.463784 202.950942 
L 531.995676 206.299835 
L 533.059459 211.881322 
L 533.591351 212.99762 
L 534.123243 214.486017 
L 534.655135 215.230215 
L 535.187027 217.090711 
L 535.718919 220.067504 
L 536.782703 224.904793 
L 537.846486 231.974678 
L 538.91027 236.811967 
L 539.442162 239.044562 
L 540.505946 242.021355 
L 541.037838 243.137653 
L 542.633514 244.25395 
L 544.761081 244.25395 
L 545.292973 243.881851 
L 545.824865 242.765554 
L 546.356757 240.16086 
L 546.888649 236.439868 
L 547.420541 231.602579 
L 550.08 213.369719 
L 550.611892 210.392926 
L 551.143784 205.555636 
L 552.207568 199.22995 
L 552.739459 196.625256 
L 553.271351 194.76476 
L 553.803243 191.415868 
L 554.867027 183.601785 
L 555.398919 180.252893 
L 555.930811 176.159802 
L 556.462703 173.183008 
L 558.058378 162.392132 
L 558.59027 159.787438 
L 559.654054 153.089653 
L 560.185946 151.973355 
L 560.717838 150.484959 
L 561.781622 148.996562 
L 562.313514 148.996562 
L 563.909189 147.880264 
L 564.972973 146.391868 
L 566.568649 140.438281 
L 567.632432 134.856793 
L 568.696216 127.786909 
L 569.228108 123.693818 
L 569.76 121.089124 
L 570.291892 119.228628 
L 570.823784 118.112331 
L 571.355676 116.623934 
L 571.887568 115.507636 
L 573.483243 113.275041 
L 574.015135 112.902942 
L 574.547027 112.158744 
L 575.610811 111.414545 
L 576.142703 111.414545 
L 577.206486 110.670347 
L 577.738378 110.670347 
L 578.27027 113.275041 
L 580.397838 130.391603 
L 581.461622 140.066182 
L 582.525405 151.601256 
L 586.248649 189.555372 
L 588.376216 201.090446 
L 589.971892 206.299835 
L 590.503784 207.044033 
L 591.035676 208.160331 
L 592.099459 209.648727 
L 592.631351 210.020826 
L 593.163243 210.765025 
L 594.758919 211.881322 
L 595.290811 211.881322 
L 596.354595 211.137124 
L 596.886486 210.020826 
L 597.418378 206.671934 
L 598.482162 195.508959 
L 599.014054 191.415868 
L 599.545946 186.206479 
L 601.141622 165.368926 
L 601.673514 162.020033 
L 602.737297 156.810645 
L 603.801081 153.833851 
L 604.332973 153.089653 
L 604.864865 151.973355 
L 605.396757 151.229157 
L 607.524324 149.74076 
L 608.056216 149.74076 
L 608.588108 149.368661 
L 609.12 148.624463 
L 609.12 148.624463 
" style="fill:none;stroke:#000004;stroke-width:3;"/>
   </g>
   <g id="line2d_22">
    <path clip-path="url(#p23acd95866)" d="M 77.76 397.930909 
L 609.12 397.930909 
" style="fill:none;stroke:#000000;stroke-opacity:0.7;stroke-width:1.3;"/>
   </g>
   <g id="patch_3">
    <path d="M 77.76 413.28 
L 77.76 75.6 
" style="fill:none;stroke:#000000;stroke-linecap:square;stroke-linejoin:miter;stroke-width:0.8;"/>
   </g>
   <g id="patch_4">
    <path d="M 609.12 413.28 
L 609.12 75.6 
" style="fill:none;stroke:#000000;stroke-linecap:square;stroke-linejoin:miter;stroke-width:0.8;"/>
   </g>
   <g id="patch_5">
    <path d="M 77.76 413.28 
L 609.12 413.28 
" style="fill:none;stroke:#000000;stroke-linecap:square;stroke-linejoin:miter;stroke-width:0.8;"/>
   </g>
   <g id="patch_6">
    <path d="M 77.76 75.6 
L 609.12 75.6 
" style="fill:none;stroke:#000000;stroke-linecap:square;stroke-linejoin:miter;stroke-width:0.8;"/>
   </g>
   <g id="patch_7">
    <path d="M 0 504 
L 648 504 
L 648 480.923077 
L 0 480.923077 
z
" style="fill:#808080;"/>
   </g>
   <g id="text_13">
    <!-- ©spred -->
    <defs>
     <path d="M 50.90625 25.90625 
L 50.90625 44 
Q 50.90625 52.40625 44.75 58.40625 
Q 38.59375 64.40625 30 64.40625 
Q 21.296875 64.40625 15.09375 58.40625 
Q 8.90625 52.40625 8.90625 44 
L 8.90625 25.90625 
Q 8.90625 17.5 15.09375 11.453125 
Q 21.296875 5.40625 30 5.40625 
Q 38.59375 5.40625 44.75 11.453125 
Q 50.90625 17.5 50.90625 25.90625 
z
M 57.703125 43.203125 
L 57.703125 26.59375 
Q 57.703125 15.203125 49.59375 7.09375 
Q 41.5 -1 30 -1 
Q 18.40625 -1 10.296875 7.09375 
Q 2.203125 15.203125 2.203125 26.59375 
L 2.203125 43.203125 
Q 2.203125 54.59375 10.296875 62.6875 
Q 18.40625 70.796875 30 70.796875 
Q 41.5 70.796875 49.59375 62.6875 
Q 57.703125 54.59375 57.703125 43.203125 
z
M 38.59375 29.40625 
L 41.40625 29.40625 
Q 42.40625 29.40625 42.90625 28.84375 
Q 43.40625 28.296875 43.40625 27.59375 
Q 43.40625 21.59375 39.796875 17.9375 
Q 36.203125 14.296875 30.40625 14.296875 
Q 24.40625 14.296875 20.75 17.9375 
Q 17.09375 21.59375 17.09375 27.09375 
L 17.09375 43.40625 
Q 17.09375 48.703125 20.75 52.390625 
Q 24.40625 56.09375 30.40625 56.09375 
Q 35.90625 56.09375 39.40625 52.25 
Q 42.90625 48.40625 42.90625 42.296875 
Q 42.90625 41.59375 42.40625 41.046875 
Q 41.90625 40.5 40.90625 40.5 
L 38.09375 40.5 
Q 37.09375 40.5 36.546875 41.046875 
Q 36 41.59375 36 42.296875 
Q 36 45.203125 34.390625 47.046875 
Q 32.796875 48.90625 30.40625 48.90625 
Q 27.703125 48.90625 25.796875 46.90625 
Q 23.90625 44.90625 23.90625 42.203125 
L 23.90625 28.203125 
Q 23.90625 25.59375 25.796875 23.59375 
Q 27.703125 21.59375 30.40625 21.59375 
Q 32.90625 21.59375 34.703125 23.1875 
Q 36.5 24.796875 36.5 27.59375 
Q 36.5 28.296875 37.046875 28.84375 
Q 37.59375 29.40625 38.59375 29.40625 
z
" id="DecimaMonoPro-169"/>
     <path d="M 30.09375 -1 
Q 25.296875 -1 21.546875 0.59375 
Q 17.796875 2.203125 15.84375 4.59375 
Q 13.90625 7 12.953125 9.390625 
Q 12 11.796875 12 14 
Q 12 14.796875 12.5 15.296875 
Q 13 15.796875 13.796875 15.796875 
L 18.296875 15.796875 
Q 19.90625 15.796875 20.09375 14.09375 
Q 20.40625 11.203125 22.796875 8.703125 
Q 25.203125 6.203125 30.09375 6.203125 
Q 34.296875 6.203125 36.890625 8.296875 
Q 39.5 10.40625 39.5 13.59375 
Q 39.5 16.5 36.84375 18.5 
Q 34.203125 20.5 30.390625 21.84375 
Q 26.59375 23.203125 22.84375 24.796875 
Q 19.09375 26.40625 16.4375 29.5 
Q 13.796875 32.59375 13.796875 37.09375 
Q 13.796875 43.296875 18.4375 47.140625 
Q 23.09375 51 30.703125 51 
Q 38.90625 51 43.25 46.5 
Q 47.59375 42 47.59375 37.5 
Q 47.59375 36.796875 47.09375 36.25 
Q 46.59375 35.703125 45.796875 35.703125 
L 41.203125 35.703125 
Q 39.703125 35.703125 39.40625 37.40625 
Q 38.90625 40 36.75 41.890625 
Q 34.59375 43.796875 30.703125 43.796875 
Q 26.90625 43.796875 24.546875 42.09375 
Q 22.203125 40.40625 22.203125 37.703125 
Q 22.203125 35 24.84375 33.09375 
Q 27.5 31.203125 31.25 29.890625 
Q 35 28.59375 38.703125 26.9375 
Q 42.40625 25.296875 45.046875 21.84375 
Q 47.703125 18.40625 47.703125 13.40625 
Q 47.703125 7.40625 42.59375 3.203125 
Q 37.5 -1 30.09375 -1 
z
" id="DecimaMonoPro-115"/>
     <path d="M 42.09375 17.09375 
L 42.09375 33.09375 
Q 42.09375 37.703125 38.84375 40.796875 
Q 35.59375 43.90625 30.5 43.90625 
Q 25.40625 43.90625 22.046875 40.75 
Q 18.703125 37.59375 18.703125 33 
L 18.703125 17.09375 
Q 18.703125 12.5 22.046875 9.390625 
Q 25.40625 6.296875 30.5 6.296875 
Q 35.59375 6.296875 38.84375 9.390625 
Q 42.09375 12.5 42.09375 17.09375 
z
M 18.703125 3.703125 
L 18.796875 -16.203125 
Q 18.796875 -18 16.5 -18 
L 13 -18 
Q 10.703125 -18 10.703125 -16.203125 
L 10.703125 48.203125 
Q 10.703125 50 13 50 
L 15.90625 50 
Q 18.203125 50 18.203125 48.203125 
L 18.203125 45.90625 
Q 18.59375 46.5 19.5 47.34375 
Q 20.40625 48.203125 23.75 49.59375 
Q 27.09375 51 31.296875 51 
Q 39.296875 51 44.796875 45.640625 
Q 50.296875 40.296875 50.296875 32.59375 
L 50.296875 17.40625 
Q 50.296875 9.796875 44.75 4.390625 
Q 39.203125 -1 31.296875 -1 
Q 27.40625 -1 24.25 0.203125 
Q 21.09375 1.40625 19.90625 2.59375 
z
" id="DecimaMonoPro-112"/>
     <path d="M 37.203125 51 
Q 44.09375 51 48.140625 46.453125 
Q 52.203125 41.90625 52.203125 37.5 
Q 52.203125 35.703125 50.5 35.703125 
L 45.90625 35.703125 
Q 44.296875 35.703125 44.09375 37.40625 
Q 43.796875 39.796875 41.75 41.796875 
Q 39.703125 43.796875 36.59375 43.796875 
Q 32.40625 43.796875 29.203125 40.796875 
Q 26 37.796875 26 34 
L 26 7.203125 
L 45.09375 7.203125 
Q 45.796875 7.203125 46.34375 6.703125 
Q 46.90625 6.203125 46.90625 5.40625 
L 46.90625 1.796875 
Q 46.90625 1 46.34375 0.5 
Q 45.796875 0 45.09375 0 
L 9.296875 0 
Q 8.59375 0 8.046875 0.5 
Q 7.5 1 7.5 1.796875 
L 7.5 5.40625 
Q 7.5 6.203125 8.046875 6.703125 
Q 8.59375 7.203125 9.296875 7.203125 
L 18 7.203125 
L 18 48.203125 
Q 18 50 20.296875 50 
L 23.5 50 
Q 25.796875 50 25.796875 48.203125 
L 25.796875 45.703125 
Q 29.796875 51 37.203125 51 
z
" id="DecimaMonoPro-114"/>
     <path d="M 48.796875 13.5 
Q 48.796875 9.09375 43.75 4.046875 
Q 38.703125 -1 30.203125 -1 
Q 21.203125 -1 15.75 4.453125 
Q 10.296875 9.90625 10.296875 17.5 
L 10.296875 32.703125 
Q 10.296875 40.203125 15.75 45.59375 
Q 21.203125 51 30.203125 51 
Q 39.203125 51 44.453125 45.59375 
Q 49.703125 40.203125 49.703125 32.703125 
L 49.703125 24.796875 
Q 49.703125 23.796875 49.046875 23.140625 
Q 48.40625 22.5 47.40625 22.5 
L 18.40625 22.5 
L 18.40625 17 
Q 18.40625 12.5 21.65625 9.296875 
Q 24.90625 6.09375 30.203125 6.09375 
Q 38.5 6.09375 40.59375 13.59375 
Q 41.09375 15.296875 42.40625 15.296875 
L 47 15.296875 
Q 47.796875 15.296875 48.296875 14.75 
Q 48.796875 14.203125 48.796875 13.5 
z
M 18.40625 33 
L 18.40625 29.703125 
L 41.796875 29.703125 
L 41.796875 33 
Q 41.796875 37.5 38.640625 40.640625 
Q 35.5 43.796875 30.203125 43.796875 
Q 24.90625 43.796875 21.65625 40.640625 
Q 18.40625 37.5 18.40625 33 
z
" id="DecimaMonoPro-101"/>
     <path d="M 17.90625 32.90625 
L 17.90625 16.90625 
Q 17.90625 12.296875 21.15625 9.1875 
Q 24.40625 6.09375 29.5 6.09375 
Q 34.59375 6.09375 37.9375 9.25 
Q 41.296875 12.40625 41.296875 17 
L 41.296875 32.90625 
Q 41.296875 37.5 37.9375 40.59375 
Q 34.59375 43.703125 29.5 43.703125 
Q 24.40625 43.703125 21.15625 40.59375 
Q 17.90625 37.5 17.90625 32.90625 
z
M 41.296875 46.296875 
L 41.203125 68.203125 
Q 41.203125 70 43.5 70 
L 47 70 
Q 49.296875 70 49.296875 68.203125 
L 49.296875 1.796875 
Q 49.296875 0 47 0 
L 44.09375 0 
Q 41.796875 0 41.796875 1.796875 
L 41.796875 4.09375 
Q 41.40625 3.5 40.5 2.640625 
Q 39.59375 1.796875 36.25 0.390625 
Q 32.90625 -1 28.703125 -1 
Q 20.703125 -1 15.203125 4.34375 
Q 9.703125 9.703125 9.703125 17.40625 
L 9.703125 32.59375 
Q 9.703125 40.203125 15.25 45.59375 
Q 20.796875 51 28.703125 51 
Q 32.59375 51 35.75 49.796875 
Q 38.90625 48.59375 40.09375 47.40625 
z
" id="DecimaMonoPro-100"/>
    </defs>
    <g style="fill:#ffffff;" transform="translate(6.48 496.8)scale(0.14 -0.14)">
     <use xlink:href="#DecimaMonoPro-169"/>
     <use x="59.999985" xlink:href="#DecimaMonoPro-115"/>
     <use x="119.999969" xlink:href="#DecimaMonoPro-112"/>
     <use x="179.999954" xlink:href="#DecimaMonoPro-114"/>
     <use x="239.999939" xlink:href="#DecimaMonoPro-101"/>
     <use x="299.999924" xlink:href="#DecimaMonoPro-100"/>
    </g>
   </g>
   <g id="text_14">
    <!-- mckade -->
    <defs>
     <path d="M 8.59375 50.40625 
L 8.59375 0 
L 19 0 
L 19 19.09375 
C 19 34.09375 24.5 42 30.796875 42 
C 35.203125 42 38.203125 39.296875 38.203125 33.796875 
L 38.203125 0 
L 48.59375 0 
L 48.59375 20.203125 
C 48.59375 34.09375 54.203125 42 60.40625 42 
C 64.796875 42 67.796875 39.296875 67.796875 33.796875 
L 67.796875 0 
L 78.203125 0 
L 78.203125 36.09375 
C 78.203125 44.90625 73 51.203125 63.796875 51.203125 
C 57.296875 51.203125 51.59375 47.40625 48.09375 40.796875 
C 46.59375 47.09375 41 51.203125 34.203125 51.203125 
C 28.09375 51.203125 23.09375 48.09375 19 41.796875 
L 19 50.40625 
z
" id="ApercuPro-Medium-109"/>
     <path d="M 41.09375 17.09375 
C 38.703125 11.703125 34.59375 8.40625 28.59375 8.40625 
C 19.703125 8.40625 15.90625 15.703125 15.90625 25.203125 
C 15.90625 34.703125 19.703125 42 28.59375 42 
C 34.59375 42 38.703125 38.703125 41.09375 33.296875 
L 50.40625 37.296875 
C 46.40625 46.40625 39.296875 51.203125 28.59375 51.203125 
C 12.59375 51.203125 4.90625 39 4.90625 25.203125 
C 4.90625 11.40625 12.59375 -0.796875 28.59375 -0.796875 
C 39.296875 -0.796875 46.40625 4 50.40625 13.09375 
z
" id="ApercuPro-Medium-99"/>
     <path d="M 8.59375 70.796875 
L 8.59375 0 
L 19 0 
L 19 24.09375 
L 38.5 0 
L 51.703125 0 
L 29.296875 27.203125 
L 50.40625 50.40625 
L 37.203125 50.40625 
L 19 30.296875 
L 19 70.796875 
z
" id="ApercuPro-Medium-107"/>
     <path d="M 4.40625 14.5 
C 4.40625 4 11.5 -0.796875 19.90625 -0.796875 
C 27 -0.796875 32.203125 2 35.5 6.59375 
L 36.5 0 
L 45.296875 0 
L 45.296875 31.296875 
C 45.296875 46.09375 36.90625 51.203125 25.203125 51.203125 
C 15.5 51.203125 8.296875 45.796875 6.203125 37.296875 
L 15.703125 35.296875 
C 17.40625 39.796875 21 42 25.09375 42 
C 30.40625 42 34.90625 39.5 34.90625 33.203125 
L 34.90625 31 
L 26.203125 31 
C 13.296875 31 4.40625 24.90625 4.40625 14.5 
z
M 15.40625 14.5 
C 15.40625 19.296875 19.40625 22.296875 25.796875 22.296875 
L 34.90625 22.296875 
L 34.90625 21.203125 
C 34.90625 12.5 28.09375 8.40625 21.703125 8.40625 
C 17.296875 8.40625 15.40625 11.09375 15.40625 14.5 
z
" id="ApercuPro-Medium-97"/>
     <path d="M 4.90625 25.203125 
C 4.90625 9.09375 12.5 -0.796875 27.40625 -0.796875 
C 34 -0.796875 39.40625 2.90625 41.09375 5.796875 
L 41.09375 0 
L 51.5 0 
L 51.5 70.796875 
L 41.09375 70.796875 
L 41.09375 44.796875 
C 38.796875 48.09375 32.59375 51.203125 27.59375 51.203125 
C 12.5 51.203125 4.90625 40.796875 4.90625 25.203125 
z
M 15.90625 25.203125 
C 15.90625 35.59375 21.296875 42 28.796875 42 
C 36.296875 42 41.703125 35.59375 41.703125 25.203125 
C 41.703125 14.796875 36.296875 8.40625 28.796875 8.40625 
C 21.296875 8.40625 15.90625 14.796875 15.90625 25.203125 
z
" id="ApercuPro-Medium-100"/>
     <path d="M 28.40625 42 
C 35.90625 42 39.703125 36.59375 40.59375 31 
L 16.09375 31 
C 17.203125 37.296875 21.5 42 28.40625 42 
z
M 51.59375 26.796875 
C 51.59375 38.09375 44.5 51.203125 28.40625 51.203125 
C 11.796875 51.203125 4.90625 37.203125 4.90625 25.203125 
C 4.90625 13.203125 11.796875 -0.796875 28.40625 -0.796875 
C 39.90625 -0.796875 45.59375 3.90625 50.5 13.40625 
L 41.59375 16.90625 
C 39 11.40625 33.796875 8.40625 28.40625 8.40625 
C 20.203125 8.40625 15.90625 14.90625 15.90625 22.296875 
L 51.59375 22.296875 
z
" id="ApercuPro-Medium-101"/>
    </defs>
    <g style="opacity:0.75;" transform="translate(72 50.4)scale(0.3 -0.3)">
     <use xlink:href="#ApercuPro-Medium-109"/>
     <use x="86.084366" xlink:href="#ApercuPro-Medium-99"/>
     <use x="140.268738" xlink:href="#ApercuPro-Medium-107"/>
     <use x="192.753098" xlink:href="#ApercuPro-Medium-97"/>
     <use x="244.153091" xlink:href="#ApercuPro-Medium-100"/>
     <use x="304.253082" xlink:href="#ApercuPro-Medium-101"/>
    </g>
   </g>
   <g id="legend_1">
    <g id="patch_8">
     <path d="M 548.08 106.568438 
L 599.32 106.568438 
Q 602.12 106.568438 602.12 103.768438 
L 602.12 85.4 
Q 602.12 82.6 599.32 82.6 
L 548.08 82.6 
Q 545.28 82.6 545.28 85.4 
L 545.28 103.768438 
Q 545.28 106.568438 548.08 106.568438 
z
" style="fill:#f0f0f0;opacity:0.8;stroke:#cccccc;stroke-linejoin:miter;stroke-width:0.5;"/>
    </g>
    <g id="line2d_23">
     <path d="M 550.88 93.211562 
L 578.88 93.211562 
" style="fill:none;stroke:#000004;stroke-width:3;"/>
    </g>
    <g id="line2d_24"/>
    <g id="text_15">
     <!-- y -->
     <g style="opacity:0.75;" transform="translate(590.08 98.111562)scale(0.14 -0.14)">
      <use xlink:href="#Apercu-121"/>
     </g>
    </g>
   </g>
  </g>
 </g>
 <defs>
  <clipPath id="p23acd95866">
   <rect height="337.68" width="531.36" x="77.76" y="75.6"/>
  </clipPath>
 </defs>
</svg>
